<svg width="35" height="35" viewBox="0 0 35 35" fill="none" xmlns="http://www.w3.org/2000/svg">
<g clip-path="url(#clip0_6146_47)">
<path d="M17.5 0C7.83601 0 0 7.83601 0 17.5C0 27.164 7.83601 35 17.5 35C27.164 35 35 27.164 35 17.5C35 7.83601 27.164 0 17.5 0ZM21.7237 11.5606H19.4715C19.1034 11.5606 18.5824 11.7447 18.5824 12.5307V14.627H21.7143L21.3463 18.1863H18.5793V28.3213H14.3899V18.1863H12.3966V14.6239H14.3899V12.3217C14.3899 10.6747 15.1729 8.0918 18.6199 8.0918L21.7237 8.10428V11.5606Z" fill="white"/>
</g>
<defs>
<clipPath id="clip0_6146_47">
<rect width="35" height="35" fill="white"/>
</clipPath>
</defs>
</svg>
