<svg width="50" height="50" viewBox="0 0 50 50" fill="none" xmlns="http://www.w3.org/2000/svg">
<path d="M28.3965 11.6406H15.3534C13.2721 11.6406 11.5808 13.332 11.5808 15.4131V28.4514C11.5808 30.5326 13.2721 32.2289 15.3534 32.2289H28.3916C30.4728 32.2289 32.1641 30.5375 32.1641 28.4563V15.4131C32.169 13.332 30.4777 11.6406 28.3965 11.6406ZM21.8749 28.7146C18.1365 28.7146 15.0999 25.6731 15.0999 21.9348C15.0999 18.1963 18.1414 15.1598 21.8749 15.1598C25.6134 15.1598 28.6549 18.2011 28.6549 21.9348C28.65 25.6731 25.6134 28.7146 21.8749 28.7146ZM28.8693 16.5586C27.9871 16.5586 27.2658 15.8373 27.2658 14.955C27.2658 14.0728 27.9871 13.3514 28.8693 13.3514C29.7515 13.3514 30.4728 14.0728 30.4728 14.955C30.4728 15.8373 29.7564 16.5586 28.8693 16.5586Z" fill="white"/>
<path d="M21.8754 18.02C19.7161 18.02 17.9614 19.7748 17.9614 21.9339C17.9614 24.0931 19.7161 25.8479 21.8754 25.8479C24.0346 25.8479 25.7893 24.0931 25.7893 21.9339C25.7893 19.7748 24.0346 18.02 21.8754 18.02Z" fill="white"/>
<path d="M21.875 0C9.79209 0 0 9.79209 0 21.875C0 33.9579 9.79209 43.75 21.875 43.75C33.9579 43.75 43.75 33.9579 43.75 21.875C43.75 9.79209 33.953 0 21.875 0ZM35.0351 28.455C35.0351 32.1155 32.057 35.0936 28.3965 35.0936H15.3535C11.693 35.0936 8.71492 32.1155 8.71492 28.455V15.4119C8.71492 11.7515 11.693 8.77344 15.3535 8.77344H28.3917C32.0521 8.77344 35.0302 11.7515 35.0302 15.4119V28.455H35.0351Z" fill="white"/>
</svg>
