<svg width="40" height="40" viewBox="0 0 40 40" fill="none" xmlns="http://www.w3.org/2000/svg">
<path d="M22.7172 9.3125H12.2827C10.6177 9.3125 9.26465 10.6656 9.26465 12.3305V22.7611C9.26465 24.4261 10.6177 25.7831 12.2827 25.7831H22.7133C24.3783 25.7831 25.7313 24.43 25.7313 22.765V12.3305C25.7352 10.6656 24.3822 9.3125 22.7172 9.3125ZM17.4999 22.9717C14.5092 22.9717 12.0799 20.5385 12.0799 17.5478C12.0799 14.557 14.5131 12.1278 17.4999 12.1278C20.4907 12.1278 22.9239 14.5609 22.9239 17.5478C22.92 20.5385 20.4907 22.9717 17.4999 22.9717ZM23.0954 13.2469C22.3897 13.2469 21.8126 12.6698 21.8126 11.964C21.8126 11.2582 22.3897 10.6811 23.0954 10.6811C23.8012 10.6811 24.3783 11.2582 24.3783 11.964C24.3783 12.6698 23.8051 13.2469 23.0954 13.2469Z" fill="white"/>
<path d="M17.5003 14.416C15.7729 14.416 14.3691 15.8198 14.3691 17.5471C14.3691 19.2745 15.7729 20.6783 17.5003 20.6783C19.2277 20.6783 20.6314 19.2745 20.6314 17.5471C20.6314 15.8198 19.2277 14.416 17.5003 14.416Z" fill="white"/>
<path d="M17.5 0C7.83367 0 0 7.83367 0 17.5C0 27.1663 7.83367 35 17.5 35C27.1663 35 35 27.1663 35 17.5C35 7.83367 27.1624 0 17.5 0ZM28.0281 22.764C28.0281 25.6924 25.6456 28.0749 22.7172 28.0749H12.2828C9.35439 28.0749 6.97192 25.6924 6.97192 22.764V12.3295C6.97192 9.40118 9.35439 7.01872 12.2828 7.01872H22.7133C25.6417 7.01872 28.0242 9.40118 28.0242 12.3295V22.764H28.0281Z" fill="white"/>
</svg>
