<svg width="35" height="35" viewBox="0 0 35 35" fill="none" xmlns="http://www.w3.org/2000/svg">
<g clip-path="url(#clip0_6146_63)">
<path d="M29.0598 30.6414C18.5069 39.8909 1.886 33.5623 0.142086 19.7127C-1.4746 6.87165 10.9849 -3.26549 23.2591 0.982156C35.8665 5.34464 39.1317 21.8143 29.0602 30.6418L29.0598 30.6414ZM22.0059 6.54542H18.149V21.5453C18.149 21.9669 17.8636 22.6956 17.6246 23.0477C16.2958 25.0062 13.2767 24.7809 12.3097 22.6126C11.2243 20.1788 13.4871 17.7101 16.0019 18.4261V14.552C15.9169 14.4844 15.7057 14.4622 15.5841 14.453C9.80003 14.0124 6.08277 20.6274 9.4724 25.3686C13.3722 30.823 21.9482 27.9939 22.0078 21.3884L22.0063 13.7772C23.4126 14.9716 25.3346 15.3713 27.135 15.5255V11.7109C26.2961 11.672 25.4535 11.5131 24.6953 11.1491C22.9601 10.3159 22.0114 8.42965 22.0059 6.54542Z" fill="white"/>
<path d="M22.0055 6.54492C22.0111 8.42915 22.9602 10.3154 24.6949 11.1486C25.4532 11.513 26.2957 11.6715 27.1347 11.7104V15.525C25.3343 15.3708 23.4122 14.9711 22.0059 13.7767L22.0075 21.3879C21.9478 27.9934 13.3718 30.8229 9.47204 25.3681C6.08241 20.6269 9.79967 14.0119 15.5837 14.4525C15.7054 14.4617 15.9165 14.4839 16.0016 14.5515V18.4256C13.4867 17.7096 11.2243 20.1783 12.3094 22.6121C13.2764 24.7804 16.295 25.0061 17.6242 23.0472C17.8632 22.6951 18.1487 21.9664 18.1487 21.5448V6.54492H22.0055Z" fill="#153478"/>
</g>
<defs>
<clipPath id="clip0_6146_63">
<rect width="35" height="35" fill="white"/>
</clipPath>
</defs>
</svg>
