<svg width="35" height="35" viewBox="0 0 35 35" fill="none" xmlns="http://www.w3.org/2000/svg">
<g clip-path="url(#clip0_6146_54)">
<path d="M15.3203 21.0107L21.0109 17.7319L15.3203 14.4531V21.0107Z" fill="white"/>
<path d="M17.5 0C7.83486 0 0 7.83486 0 17.5C0 27.1651 7.83486 35 17.5 35C27.1651 35 35 27.1616 35 17.5C35 7.83843 27.1616 0 17.5 0ZM28.4317 17.5178C28.4317 17.5178 28.4317 21.0678 27.9822 22.7768C27.7288 23.7151 26.9903 24.4536 26.0556 24.7034C24.343 25.1529 17.5 25.1529 17.5 25.1529C17.5 25.1529 10.6713 25.1529 8.94444 24.6855C8.00612 24.4322 7.26758 23.6937 7.01784 22.7589C6.5683 21.0642 6.5683 17.5 6.5683 17.5C6.5683 17.5 6.5683 13.9501 7.01784 12.2411C7.27115 11.3028 8.02752 10.5464 8.94444 10.2966C10.657 9.8471 17.5 9.8471 17.5 9.8471C17.5 9.8471 24.3466 9.84709 26.0556 10.3145C26.9939 10.5678 27.7324 11.3063 27.9822 12.2411C28.4531 13.9501 28.4317 17.5178 28.4317 17.5178Z" fill="white"/>
</g>
<defs>
<clipPath id="clip0_6146_54">
<rect width="35" height="35" fill="white"/>
</clipPath>
</defs>
</svg>
