<svg width="35" height="35" viewBox="0 0 35 35" fill="none" xmlns="http://www.w3.org/2000/svg">
<g clip-path="url(#clip0_6146_58)">
<path d="M17.5 0C7.83478 0 0 7.83478 0 17.5C0 27.1652 7.83478 35 17.5 35C27.1652 35 35 27.1652 35 17.5C35 7.83478 27.1652 0 17.5 0ZM11.3268 22.2995C9.97636 22.3161 8.63249 22.3094 7.28201 22.3094C6.89143 22.3094 6.50747 22.326 6.11358 22.2995C5.63032 22.273 5.15368 22.1737 4.92198 21.6739C4.69028 21.1741 4.85578 20.7239 5.17354 20.3168C6.45782 18.6817 7.74872 17.0399 9.04294 15.4081C9.11907 15.3088 9.19189 15.2095 9.26802 15.1168C9.18527 14.9745 9.06942 15.0407 8.96681 15.034C8.06648 15.0241 7.15623 15.034 6.25922 15.0241C6.05069 15.0241 5.84216 14.9976 5.64356 14.9579C5.16692 14.8487 4.87564 14.3754 4.98487 13.9086C5.061 13.5909 5.30925 13.3327 5.62701 13.2599C5.82561 13.2102 6.03414 13.1838 6.24267 13.1838C7.72555 13.1738 9.21837 13.1738 10.7012 13.1838C10.9694 13.1738 11.2275 13.2102 11.4857 13.2764C12.0517 13.4684 12.2934 13.9947 12.0683 14.5442C11.8697 15.0208 11.5519 15.4279 11.2342 15.8351C10.1419 17.2286 9.04956 18.6122 7.95725 19.9858C7.86457 20.095 7.78182 20.201 7.64942 20.3863C8.90723 20.3863 10.0922 20.3764 11.2673 20.3863C11.926 20.3963 12.2834 20.671 12.3496 21.194C12.4258 21.8493 12.0418 22.2929 11.3268 22.2995ZM19.3536 21.3926C19.3536 21.8262 19.0689 22.2101 18.6618 22.3359C18.2448 22.4948 17.7714 22.369 17.4934 22.0115C17.351 21.8361 17.2948 21.803 17.0929 21.9619C16.3349 22.5775 15.4743 22.6868 14.5508 22.3856C13.0679 21.9023 12.4589 20.7438 12.2934 19.3337C12.1179 17.8078 12.6277 16.507 13.9947 15.706C15.13 15.0307 16.2786 15.0903 17.3213 15.9973C17.5199 15.7391 17.7284 15.4974 18.0726 15.4312C18.7313 15.2988 19.347 15.7225 19.3569 16.3911C19.3801 18.0561 19.3702 19.7243 19.3536 21.3926ZM22.3624 21.3065C22.3723 21.899 21.9023 22.3889 21.3131 22.4054C21.2138 22.4054 21.1046 22.3955 21.0053 22.3723C20.5882 22.2631 20.2705 21.8229 20.2705 21.2966V14.6733C20.2705 14.2827 20.2605 13.8987 20.2705 13.5048C20.2771 12.8627 20.6875 12.4456 21.3032 12.4456C21.9354 12.4357 22.3624 12.8528 22.3624 13.5214C22.3723 14.8222 22.3624 16.1297 22.3624 17.4305C22.3624 18.7247 22.3723 20.0156 22.3624 21.3065ZM26.9633 22.5345C24.7886 22.7497 23.0608 21.1774 23.0939 19.0921C23.0277 16.9505 24.4345 15.3485 26.437 15.2922C28.562 15.226 30.1144 16.6493 30.1806 18.7346C30.2501 20.8398 28.9559 22.3326 26.9633 22.5345Z" fill="white"/>
<path d="M27.7145 17.7378C27.4795 17.4201 27.1154 17.2215 26.7215 17.2115C25.8212 17.1619 25.1889 17.8437 25.1889 18.8864C25.1724 19.3035 25.2982 19.7106 25.5464 20.0548C25.6126 20.1475 25.6888 20.2303 25.7814 20.2965C25.9105 20.3958 26.0495 20.4719 26.1952 20.5215C26.1952 20.5215 26.1952 20.5215 26.1985 20.5215C26.2084 20.5248 26.2151 20.5282 26.225 20.5282C26.4997 20.6142 26.8009 20.6142 27.0823 20.5149C27.3239 20.4322 27.5424 20.2832 27.7112 20.0714C27.9528 19.7569 28.0753 19.3332 28.0753 18.9062C28.0753 18.4826 27.9594 18.0622 27.7244 17.7444C27.7178 17.7444 27.7145 17.7411 27.7145 17.7378Z" fill="white"/>
<path d="M16.2724 17.2757C16.1566 17.236 16.0374 17.2128 15.9117 17.2095C15.0014 17.1598 14.3626 17.8682 14.3692 19.0432C14.3857 19.4106 14.5016 19.7615 14.7101 20.0528C14.7929 20.162 14.8856 20.2514 14.9849 20.3275C15.2331 20.5129 15.5244 20.5989 15.809 20.5989C16.097 20.5989 16.385 20.5129 16.6332 20.3275C16.7325 20.2514 16.8252 20.162 16.908 20.0528C17.3747 19.4206 17.3747 18.3779 16.908 17.7424C16.7491 17.5173 16.524 17.3551 16.2724 17.2757Z" fill="white"/>
</g>
<defs>
<clipPath id="clip0_6146_58">
<rect width="35" height="35" fill="white"/>
</clipPath>
</defs>
</svg>
