<svg width="208" height="68" viewBox="0 0 208 68" fill="none" xmlns="http://www.w3.org/2000/svg">
<g filter="url(#filter0_d_4006_108)">
<rect x="4" width="200" height="60" rx="30" fill="white"/>
<rect x="4.5" y="0.5" width="199" height="59" rx="29.5" stroke="url(#paint0_linear_4006_108)"/>
</g>
<path d="M68.6914 25.3097V22.4545H80.9854V25.3097H76.5749V37H73.109V25.3097H68.6914ZM83.1024 37V22.4545H86.618V28.2926H92.3496V22.4545H95.8581V37H92.3496V31.1548H86.618V37H83.1024ZM98.4634 37V22.4545H108.605V25.3097H101.979V28.2926H108.087V31.1548H101.979V34.1449H108.605V37H98.4634ZM104.372 19.2727L107.206 21.3537H105.012L103.563 20.2955L102.064 21.3537H99.8696L102.711 19.2727H104.372ZM107.966 20.1534H106.276L106.091 19.1591C106.503 19.1449 106.799 19.0952 106.979 19.0099C107.164 18.92 107.256 18.8016 107.256 18.6548C107.256 18.4418 107.145 18.2997 106.922 18.2287C106.7 18.1577 106.42 18.1222 106.084 18.1222L106.162 16.9148C107.161 16.9148 107.924 17.0545 108.449 17.3338C108.979 17.6132 109.245 18.0109 109.245 18.527C109.245 18.8632 109.11 19.1236 108.84 19.3082C108.575 19.4929 108.283 19.6136 107.966 19.6705V20.1534ZM115.904 37V22.4545H119.42V34.1449H125.471V37H115.904ZM127.691 37V22.4545H137.833V25.3097H131.206V28.2926H137.314V31.1548H131.206V34.1449H137.833V37H127.691ZM134.203 21.1477L132.79 19.5L131.384 21.1477H128.472V21.0554L131.547 17.8736H134.04L137.108 21.0554V21.1477H134.203ZM132.769 41.2472C132.276 41.2472 131.855 41.0838 131.505 40.7571C131.159 40.4304 130.986 40.0398 130.986 39.5852C130.986 39.1307 131.161 38.7401 131.512 38.4134C131.862 38.0866 132.281 37.9233 132.769 37.9233C133.261 37.9233 133.68 38.0866 134.026 38.4134C134.376 38.7401 134.551 39.1307 134.551 39.5852C134.551 40.0398 134.376 40.4304 134.026 40.7571C133.68 41.0838 133.261 41.2472 132.769 41.2472Z" fill="#C50002"/>
<defs>
<filter id="filter0_d_4006_108" x="0" y="0" width="208" height="68" filterUnits="userSpaceOnUse" color-interpolation-filters="sRGB">
<feFlood flood-opacity="0" result="BackgroundImageFix"/>
<feColorMatrix in="SourceAlpha" type="matrix" values="0 0 0 0 0 0 0 0 0 0 0 0 0 0 0 0 0 0 127 0" result="hardAlpha"/>
<feOffset dy="4"/>
<feGaussianBlur stdDeviation="2"/>
<feComposite in2="hardAlpha" operator="out"/>
<feColorMatrix type="matrix" values="0 0 0 0 0 0 0 0 0 0 0 0 0 0 0 0 0 0 0.25 0"/>
<feBlend mode="normal" in2="BackgroundImageFix" result="effect1_dropShadow_4006_108"/>
<feBlend mode="normal" in="SourceGraphic" in2="effect1_dropShadow_4006_108" result="shape"/>
</filter>
<linearGradient id="paint0_linear_4006_108" x1="88.8148" y1="1.18158e-06" x2="89.4898" y2="59.9966" gradientUnits="userSpaceOnUse">
<stop stop-color="white"/>
<stop offset="1" stop-color="#ADDEFF"/>
</linearGradient>
</defs>
</svg>
