<svg width="208" height="68" viewBox="0 0 208 68" fill="none" xmlns="http://www.w3.org/2000/svg">
<g filter="url(#filter0_d_4006_107)">
<rect x="4" width="200" height="60" rx="30" fill="white"/>
<rect x="4.5" y="0.5" width="199" height="59" rx="29.5" stroke="url(#paint0_linear_4006_107)"/>
</g>
<path d="M61.0855 27H57.2076V24.0028H60.9505C61.7649 24.0028 62.4538 23.8655 63.0173 23.5909C63.5855 23.3116 64.014 22.8594 64.3028 22.2344C64.5964 21.6046 64.7431 20.7666 64.7431 19.7202C64.7431 18.6738 64.5964 17.8404 64.3028 17.2202C64.0092 16.5952 63.576 16.1454 63.0031 15.8707C62.4349 15.5914 61.7342 15.4517 60.9008 15.4517H57.1437V12.4545H61.0784C62.5604 12.4545 63.8364 12.7457 64.9065 13.3281C65.9813 13.9058 66.8099 14.7391 67.3923 15.8281C67.9747 16.9124 68.2659 18.2098 68.2659 19.7202C68.2659 21.2353 67.9747 22.5374 67.3923 23.6264C66.8146 24.7154 65.9884 25.5511 64.9136 26.1335C63.8388 26.7112 62.5627 27 61.0855 27ZM59.2247 12.4545V27H55.7091V12.4545H59.2247ZM53.763 20.2457V18.2997H61.1281V20.2457H53.763ZM74.2341 12.4545V27H70.7184V12.4545H74.2341ZM76.8411 27V12.4545H86.9831V15.3097H80.3567V18.2926H86.4647V21.1548H80.3567V24.1449H86.9831V27H76.8411ZM82.7573 9.28693L85.6266 11.3679H83.4036L81.9405 10.2741L80.4561 11.3679H78.2544L81.1025 9.28693H82.7573ZM77.2175 7.59659L78.9931 10.2741H77.2246L74.824 7.59659H77.2175ZM98.3846 12.4545H101.893V21.8366C101.893 22.9209 101.635 23.8655 101.119 24.6705C100.603 25.4706 99.8831 26.0909 98.9598 26.5312C98.0365 26.9669 96.9641 27.1847 95.7425 27.1847C94.5067 27.1847 93.4272 26.9669 92.5039 26.5312C91.5806 26.0909 90.8632 25.4706 90.3519 24.6705C89.8405 23.8655 89.5848 22.9209 89.5848 21.8366V12.4545H93.1005V21.5312C93.1005 22.0331 93.2094 22.4806 93.4272 22.8736C93.6497 23.2666 93.9598 23.5743 94.3576 23.7969C94.7553 24.0194 95.2169 24.1307 95.7425 24.1307C96.2681 24.1307 96.7274 24.0194 97.1203 23.7969C97.5181 23.5743 97.8282 23.2666 98.0507 22.8736C98.2733 22.4806 98.3846 22.0331 98.3846 21.5312V12.4545ZM109.193 27V12.4545H112.709V18.6051H112.901L117.709 12.4545H121.85L116.693 18.946L121.942 27H117.737L114.115 21.2827L112.709 23.0582V27H109.193ZM127.152 12.4545V27H123.636V12.4545H127.152ZM129.759 27V12.4545H139.901V15.3097H133.275V18.2926H139.383V21.1548H133.275V24.1449H139.901V27H129.759ZM136.272 11.1477L134.858 9.5L133.452 11.1477H130.54V11.0554L133.616 7.87358H136.108L139.177 11.0554V11.1477H136.272ZM134.837 31.2472C134.345 31.2472 133.923 31.0838 133.573 30.7571C133.227 30.4304 133.055 30.0398 133.055 29.5852C133.055 29.1307 133.23 28.7401 133.58 28.4134C133.93 28.0866 134.349 27.9233 134.837 27.9233C135.33 27.9233 135.749 28.0866 136.094 28.4134C136.445 28.7401 136.62 29.1307 136.62 29.5852C136.62 30.0398 136.445 30.4304 136.094 30.7571C135.749 31.0838 135.33 31.2472 134.837 31.2472ZM154.882 12.4545V27H151.899L146.111 18.6051H146.018V27H142.503V12.4545H145.528L151.253 20.8352H151.374V12.4545H154.882ZM58.3909 32.4545L61.6437 43.108H61.7645L65.0173 32.4545H68.952L64.0443 47H59.3639L54.4562 32.4545H58.3909ZM83.7874 39.7273C83.7874 41.3277 83.4796 42.6842 82.8641 43.7969C82.2485 44.9096 81.4152 45.7547 80.3641 46.3324C79.3177 46.91 78.1434 47.1989 76.8413 47.1989C75.5345 47.1989 74.3579 46.9077 73.3115 46.3253C72.2651 45.7429 71.4341 44.8977 70.8186 43.7898C70.2078 42.6771 69.9024 41.3229 69.9024 39.7273C69.9024 38.1269 70.2078 36.7704 70.8186 35.6577C71.4341 34.545 72.2651 33.6998 73.3115 33.1222C74.3579 32.5445 75.5345 32.2557 76.8413 32.2557C78.1434 32.2557 79.3177 32.5445 80.3641 33.1222C81.4152 33.6998 82.2485 34.545 82.8641 35.6577C83.4796 36.7704 83.7874 38.1269 83.7874 39.7273ZM80.1936 39.7273C80.1936 38.7803 80.0587 37.9801 79.7888 37.3267C79.5236 36.6733 79.1401 36.1785 78.6382 35.8423C78.141 35.5062 77.5421 35.3381 76.8413 35.3381C76.1453 35.3381 75.5464 35.5062 75.0445 35.8423C74.5426 36.1785 74.1567 36.6733 73.8868 37.3267C73.6216 37.9801 73.4891 38.7803 73.4891 39.7273C73.4891 40.6742 73.6216 41.4744 73.8868 42.1278C74.1567 42.7812 74.5426 43.276 75.0445 43.6122C75.5464 43.9484 76.1453 44.1165 76.8413 44.1165C77.5421 44.1165 78.141 43.9484 78.6382 43.6122C79.1401 43.276 79.5236 42.7812 79.7888 42.1278C80.0587 41.4744 80.1936 40.6742 80.1936 39.7273ZM95.0396 32.4545H98.5482V41.8366C98.5482 42.9209 98.2901 43.8655 97.774 44.6705C97.2579 45.4706 96.5382 46.0909 95.6149 46.5312C94.6916 46.9669 93.6192 47.1847 92.3976 47.1847C91.1618 47.1847 90.0822 46.9669 89.1589 46.5312C88.2357 46.0909 87.5183 45.4706 87.007 44.6705C86.4956 43.8655 86.2399 42.9209 86.2399 41.8366V32.4545H89.7555V41.5312C89.7555 42.0331 89.8644 42.4806 90.0822 42.8736C90.3048 43.2666 90.6149 43.5743 91.0126 43.7969C91.4104 44.0194 91.872 44.1307 92.3976 44.1307C92.9232 44.1307 93.3824 44.0194 93.7754 43.7969C94.1732 43.5743 94.4833 43.2666 94.7058 42.8736C94.9284 42.4806 95.0396 42.0331 95.0396 41.5312V32.4545ZM114.355 37.7244H110.804C110.756 37.3598 110.659 37.0308 110.512 36.7372C110.366 36.4437 110.172 36.1927 109.93 35.9844C109.689 35.776 109.402 35.6174 109.071 35.5085C108.744 35.3949 108.382 35.3381 107.984 35.3381C107.279 35.3381 106.67 35.5109 106.159 35.8565C105.652 36.2022 105.261 36.7017 104.987 37.3551C104.717 38.0085 104.582 38.7992 104.582 39.7273C104.582 40.6932 104.719 41.5028 104.994 42.1562C105.273 42.8049 105.664 43.295 106.166 43.6264C106.672 43.9531 107.271 44.1165 107.963 44.1165C108.351 44.1165 108.704 44.0668 109.021 43.9673C109.343 43.8679 109.625 43.7235 109.866 43.5341C110.112 43.34 110.314 43.1056 110.47 42.831C110.631 42.5516 110.742 42.2367 110.804 41.8864L114.355 41.9077C114.293 42.5516 114.106 43.1861 113.794 43.8111C113.486 44.4361 113.062 45.0066 112.522 45.5227C111.983 46.0341 111.324 46.4413 110.548 46.7443C109.776 47.0473 108.891 47.1989 107.892 47.1989C106.575 47.1989 105.396 46.91 104.355 46.3324C103.318 45.75 102.499 44.9025 101.897 43.7898C101.296 42.6771 100.995 41.3229 100.995 39.7273C100.995 38.1269 101.301 36.7704 101.912 35.6577C102.522 34.545 103.349 33.6998 104.39 33.1222C105.432 32.5445 106.599 32.2557 107.892 32.2557C108.772 32.2557 109.587 32.3788 110.335 32.625C111.083 32.8665 111.741 33.2216 112.309 33.6903C112.877 34.1544 113.339 34.7249 113.694 35.402C114.049 36.0791 114.27 36.8532 114.355 37.7244ZM116.766 47V32.4545H120.282V38.2926H126.014V32.4545H129.522V47H126.014V41.1548H120.282V47H116.766ZM132.127 47V32.4545H142.269V35.3097H135.643V38.2926H141.751V41.1548H135.643V44.1449H142.269V47H132.127ZM144.871 47V32.4545H150.88C151.969 32.4545 152.909 32.651 153.699 33.044C154.495 33.4323 155.108 33.991 155.539 34.7202C155.97 35.4446 156.185 36.304 156.185 37.2983C156.185 38.3068 155.965 39.1638 155.525 39.8693C155.084 40.5701 154.459 41.1051 153.65 41.4744C152.84 41.839 151.881 42.0213 150.773 42.0213H146.973V39.2514H150.12C150.65 39.2514 151.093 39.1828 151.448 39.0455C151.808 38.9034 152.08 38.6903 152.265 38.4062C152.449 38.1174 152.542 37.7481 152.542 37.2983C152.542 36.8485 152.449 36.4768 152.265 36.1832C152.08 35.8849 151.808 35.6624 151.448 35.5156C151.088 35.3641 150.645 35.2884 150.12 35.2884H148.387V47H144.871ZM153.06 40.3523L156.682 47H152.847L149.296 40.3523H153.06Z" fill="#C50002"/>
<defs>
<filter id="filter0_d_4006_107" x="0" y="0" width="208" height="68" filterUnits="userSpaceOnUse" color-interpolation-filters="sRGB">
<feFlood flood-opacity="0" result="BackgroundImageFix"/>
<feColorMatrix in="SourceAlpha" type="matrix" values="0 0 0 0 0 0 0 0 0 0 0 0 0 0 0 0 0 0 127 0" result="hardAlpha"/>
<feOffset dy="4"/>
<feGaussianBlur stdDeviation="2"/>
<feComposite in2="hardAlpha" operator="out"/>
<feColorMatrix type="matrix" values="0 0 0 0 0 0 0 0 0 0 0 0 0 0 0 0 0 0 0.25 0"/>
<feBlend mode="normal" in2="BackgroundImageFix" result="effect1_dropShadow_4006_107"/>
<feBlend mode="normal" in="SourceGraphic" in2="effect1_dropShadow_4006_107" result="shape"/>
</filter>
<linearGradient id="paint0_linear_4006_107" x1="88.8148" y1="1.18158e-06" x2="89.4898" y2="59.9966" gradientUnits="userSpaceOnUse">
<stop stop-color="#FFF2F2"/>
<stop offset="1" stop-color="#FFDED7"/>
</linearGradient>
</defs>
</svg>
