<svg width="1920" height="60" viewBox="0 0 1920 60" fill="none" xmlns="http://www.w3.org/2000/svg">
<rect width="1920" height="60" fill="#550008"/>
<g clip-path="url(#clip0_6146_42)">
<path d="M1480.5 12C1470.84 12 1463 19.836 1463 29.5C1463 39.164 1470.84 47 1480.5 47C1490.16 47 1498 39.164 1498 29.5C1498 19.836 1490.16 12 1480.5 12ZM1484.72 23.5606H1482.47C1482.1 23.5606 1481.58 23.7447 1481.58 24.5307V26.627H1484.71L1484.35 30.1863H1481.58V40.3213H1477.39V30.1863H1475.4V26.6239H1477.39V24.3217C1477.39 22.6747 1478.17 20.0918 1481.62 20.0918L1484.72 20.1043V23.5606Z" fill="white"/>
</g>
<path d="M1540.72 19.3125H1530.28C1528.62 19.3125 1527.26 20.6656 1527.26 22.3305V32.7611C1527.26 34.4261 1528.62 35.7831 1530.28 35.7831H1540.71C1542.38 35.7831 1543.73 34.43 1543.73 32.765V22.3305C1543.74 20.6656 1542.38 19.3125 1540.72 19.3125ZM1535.5 32.9717C1532.51 32.9717 1530.08 30.5385 1530.08 27.5478C1530.08 24.557 1532.51 22.1278 1535.5 22.1278C1538.49 22.1278 1540.92 24.5609 1540.92 27.5478C1540.92 30.5385 1538.49 32.9717 1535.5 32.9717ZM1541.1 23.2469C1540.39 23.2469 1539.81 22.6698 1539.81 21.964C1539.81 21.2582 1540.39 20.6811 1541.1 20.6811C1541.8 20.6811 1542.38 21.2582 1542.38 21.964C1542.38 22.6698 1541.81 23.2469 1541.1 23.2469Z" fill="white"/>
<path d="M1535.5 24.416C1533.77 24.416 1532.37 25.8198 1532.37 27.5471C1532.37 29.2745 1533.77 30.6783 1535.5 30.6783C1537.23 30.6783 1538.63 29.2745 1538.63 27.5471C1538.63 25.8198 1537.23 24.416 1535.5 24.416Z" fill="white"/>
<path d="M1535.5 10C1525.83 10 1518 17.8337 1518 27.5C1518 37.1663 1525.83 45 1535.5 45C1545.17 45 1553 37.1663 1553 27.5C1553 17.8337 1545.16 10 1535.5 10ZM1546.03 32.764C1546.03 35.6924 1543.65 38.0749 1540.72 38.0749H1530.28C1527.35 38.0749 1524.97 35.6924 1524.97 32.764V22.3295C1524.97 19.4012 1527.35 17.0187 1530.28 17.0187H1540.71C1543.64 17.0187 1546.02 19.4012 1546.02 22.3295V32.764H1546.03Z" fill="white"/>
<g clip-path="url(#clip1_6146_42)">
<path d="M1593.32 33.0107L1599.01 29.7319L1593.32 26.4531V33.0107Z" fill="white"/>
<path d="M1595.5 12C1585.83 12 1578 19.8349 1578 29.5C1578 39.1651 1585.83 47 1595.5 47C1605.17 47 1613 39.1616 1613 29.5C1613 19.8384 1605.16 12 1595.5 12ZM1606.43 29.5178C1606.43 29.5178 1606.43 33.0678 1605.98 34.7768C1605.73 35.7151 1604.99 36.4536 1604.06 36.7034C1602.34 37.1529 1595.5 37.1529 1595.5 37.1529C1595.5 37.1529 1588.67 37.1529 1586.94 36.6855C1586.01 36.4322 1585.27 35.6937 1585.02 34.7589C1584.57 33.0642 1584.57 29.5 1584.57 29.5C1584.57 29.5 1584.57 25.9501 1585.02 24.2411C1585.27 23.3028 1586.03 22.5464 1586.94 22.2966C1588.66 21.8471 1595.5 21.8471 1595.5 21.8471C1595.5 21.8471 1602.35 21.8471 1604.06 22.3145C1604.99 22.5678 1605.73 23.3063 1605.98 24.2411C1606.45 25.9501 1606.43 29.5178 1606.43 29.5178Z" fill="white"/>
</g>
<g clip-path="url(#clip2_6146_42)">
<path d="M1650.5 12C1640.83 12 1633 19.8348 1633 29.5C1633 39.1652 1640.83 47 1650.5 47C1660.17 47 1668 39.1652 1668 29.5C1668 19.8348 1660.17 12 1650.5 12ZM1644.33 34.2995C1642.98 34.3161 1641.63 34.3094 1640.28 34.3094C1639.89 34.3094 1639.51 34.326 1639.11 34.2995C1638.63 34.273 1638.15 34.1737 1637.92 33.6739C1637.69 33.1741 1637.86 32.7239 1638.17 32.3168C1639.46 30.6817 1640.75 29.0399 1642.04 27.4081C1642.12 27.3088 1642.19 27.2095 1642.27 27.1168C1642.19 26.9745 1642.07 27.0407 1641.97 27.034C1641.07 27.0241 1640.16 27.034 1639.26 27.0241C1639.05 27.0241 1638.84 26.9976 1638.64 26.9579C1638.17 26.8487 1637.88 26.3754 1637.98 25.9086C1638.06 25.5909 1638.31 25.3327 1638.63 25.2599C1638.83 25.2102 1639.03 25.1838 1639.24 25.1838C1640.73 25.1738 1642.22 25.1738 1643.7 25.1838C1643.97 25.1738 1644.23 25.2102 1644.49 25.2764C1645.05 25.4684 1645.29 25.9947 1645.07 26.5442C1644.87 27.0208 1644.55 27.4279 1644.23 27.8351C1643.14 29.2286 1642.05 30.6122 1640.96 31.9858C1640.86 32.095 1640.78 32.201 1640.65 32.3863C1641.91 32.3863 1643.09 32.3764 1644.27 32.3863C1644.93 32.3963 1645.28 32.671 1645.35 33.194C1645.43 33.8493 1645.04 34.2929 1644.33 34.2995ZM1652.35 33.3926C1652.35 33.8262 1652.07 34.2101 1651.66 34.3359C1651.24 34.4948 1650.77 34.369 1650.49 34.0115C1650.35 33.8361 1650.29 33.803 1650.09 33.9619C1649.33 34.5775 1648.47 34.6868 1647.55 34.3856C1646.07 33.9023 1645.46 32.7438 1645.29 31.3337C1645.12 29.8078 1645.63 28.507 1646.99 27.706C1648.13 27.0307 1649.28 27.0903 1650.32 27.9973C1650.52 27.7391 1650.73 27.4974 1651.07 27.4312C1651.73 27.2988 1652.35 27.7225 1652.36 28.3911C1652.38 30.0561 1652.37 31.7243 1652.35 33.3926ZM1655.36 33.3065C1655.37 33.899 1654.9 34.3889 1654.31 34.4054C1654.21 34.4054 1654.1 34.3955 1654.01 34.3723C1653.59 34.2631 1653.27 33.8229 1653.27 33.2966V26.6733C1653.27 26.2827 1653.26 25.8987 1653.27 25.5048C1653.28 24.8627 1653.69 24.4456 1654.3 24.4456C1654.94 24.4357 1655.36 24.8528 1655.36 25.5214C1655.37 26.8222 1655.36 28.1297 1655.36 29.4305C1655.36 30.7247 1655.37 32.0156 1655.36 33.3065ZM1659.96 34.5345C1657.79 34.7497 1656.06 33.1774 1656.09 31.0921C1656.03 28.9505 1657.43 27.3485 1659.44 27.2922C1661.56 27.226 1663.11 28.6493 1663.18 30.7346C1663.25 32.8398 1661.96 34.3326 1659.96 34.5345Z" fill="white"/>
<path d="M1660.71 29.7378C1660.48 29.4201 1660.12 29.2215 1659.72 29.2115C1658.82 29.1619 1658.19 29.8437 1658.19 30.8864C1658.17 31.3035 1658.3 31.7106 1658.55 32.0548C1658.61 32.1475 1658.69 32.2303 1658.78 32.2965C1658.91 32.3958 1659.05 32.4719 1659.2 32.5215C1659.2 32.5215 1659.2 32.5215 1659.2 32.5215C1659.21 32.5248 1659.22 32.5282 1659.22 32.5282C1659.5 32.6142 1659.8 32.6142 1660.08 32.5149C1660.32 32.4322 1660.54 32.2832 1660.71 32.0714C1660.95 31.7569 1661.08 31.3332 1661.08 30.9062C1661.08 30.4826 1660.96 30.0622 1660.72 29.7444C1660.72 29.7444 1660.71 29.7411 1660.71 29.7378Z" fill="white"/>
<path d="M1649.27 29.2757C1649.16 29.236 1649.04 29.2128 1648.91 29.2095C1648 29.1598 1647.36 29.8682 1647.37 31.0432C1647.39 31.4106 1647.5 31.7615 1647.71 32.0528C1647.79 32.162 1647.89 32.2514 1647.98 32.3275C1648.23 32.5129 1648.52 32.5989 1648.81 32.5989C1649.1 32.5989 1649.38 32.5129 1649.63 32.3275C1649.73 32.2514 1649.83 32.162 1649.91 32.0528C1650.37 31.4206 1650.37 30.3779 1649.91 29.7424C1649.75 29.5173 1649.52 29.3551 1649.27 29.2757Z" fill="white"/>
</g>
<g clip-path="url(#clip3_6146_42)">
<path d="M1717.06 42.6414C1706.51 51.8909 1689.89 45.5623 1688.14 31.7127C1686.53 18.8716 1698.98 8.73451 1711.26 12.9822C1723.87 17.3446 1727.13 33.8143 1717.06 42.6418L1717.06 42.6414ZM1710.01 18.5454H1706.15V33.5453C1706.15 33.9669 1705.86 34.6956 1705.62 35.0477C1704.3 37.0062 1701.28 36.7809 1700.31 34.6126C1699.22 32.1788 1701.49 29.7101 1704 30.4261V26.552C1703.92 26.4844 1703.71 26.4622 1703.58 26.453C1697.8 26.0124 1694.08 32.6274 1697.47 37.3686C1701.37 42.823 1709.95 39.9939 1710.01 33.3884L1710.01 25.7772C1711.41 26.9716 1713.33 27.3713 1715.14 27.5255V23.7109C1714.3 23.672 1713.45 23.5131 1712.7 23.1491C1710.96 22.3159 1710.01 20.4296 1710.01 18.5454Z" fill="white"/>
<path d="M1710.01 18.5449C1710.01 20.4291 1710.96 22.3154 1712.69 23.1486C1713.45 23.513 1714.3 23.6715 1715.13 23.7104V27.525C1713.33 27.3708 1711.41 26.9711 1710.01 25.7767L1710.01 33.3879C1709.95 39.9934 1701.37 42.8229 1697.47 37.3681C1694.08 32.6269 1697.8 26.0119 1703.58 26.4525C1703.71 26.4617 1703.92 26.4839 1704 26.5515V30.4256C1701.49 29.7096 1699.22 32.1783 1700.31 34.6121C1701.28 36.7804 1704.3 37.0061 1705.62 35.0472C1705.86 34.6951 1706.15 33.9664 1706.15 33.5448V18.5449H1710.01Z" fill="#153478"/>
</g>
<path d="M200.139 36.0254C197.131 36.0254 194.739 33.6602 194.739 30.6182C194.739 27.5625 197.131 25.2109 200.139 25.2109C203.161 25.2109 205.54 27.5625 205.54 30.6182C205.54 33.6602 203.161 36.0254 200.139 36.0254ZM200.139 34.9658C202.566 34.9658 204.48 33.0723 204.48 30.6182C204.48 28.1504 202.566 26.2705 200.139 26.2705C197.726 26.2705 195.805 28.1504 195.805 30.6182C195.805 33.0723 197.726 34.9658 200.139 34.9658ZM202.675 29.7842H201.513C201.397 29.2441 200.946 28.8408 200.255 28.8408C199.387 28.8408 198.834 29.4971 198.834 30.6045C198.834 31.7324 199.394 32.3955 200.255 32.3955C200.912 32.3955 201.383 32.0742 201.513 31.4863H202.675C202.539 32.6211 201.643 33.4004 200.255 33.4004C198.635 33.4004 197.603 32.334 197.603 30.6045C197.603 28.9023 198.635 27.8359 200.249 27.8359C201.643 27.8359 202.539 28.6699 202.675 29.7842ZM214.433 35.1641C211.616 35.1641 209.846 33.2295 209.846 30.0645C209.846 26.9199 211.63 24.9717 214.433 24.9717C216.723 24.9717 218.466 26.4004 218.685 28.5195H216.948C216.716 27.2822 215.711 26.4688 214.433 26.4688C212.737 26.4688 211.65 27.8633 211.65 30.0645C211.65 32.2793 212.731 33.667 214.439 33.667C215.745 33.667 216.682 32.9629 216.955 31.7734H218.685C218.377 33.8857 216.764 35.1641 214.433 35.1641ZM224.652 24.9717C227.523 24.9717 229.328 26.9336 229.328 30.0713C229.328 33.209 227.523 35.1641 224.652 35.1641C221.774 35.1641 219.969 33.209 219.969 30.0713C219.969 26.9336 221.774 24.9717 224.652 24.9717ZM224.652 26.4756C222.888 26.4756 221.774 27.8701 221.774 30.0713C221.774 32.2656 222.888 33.6602 224.652 33.6602C226.409 33.6602 227.53 32.2656 227.53 30.0713C227.53 27.8701 226.409 26.4756 224.652 26.4756ZM231.016 25.1357H234.851C236.813 25.1357 238.173 26.4688 238.173 28.4375C238.173 30.4062 236.772 31.7393 234.776 31.7393H232.78V35H231.016V25.1357ZM232.78 26.5781V30.3174H234.379C235.644 30.3174 236.382 29.6338 236.382 28.4375C236.382 27.2549 235.651 26.5781 234.386 26.5781H232.78ZM244.004 35H242.247V31.1104L238.788 25.1357H240.723L243.115 29.4287H243.156L245.542 25.1357H247.463L244.004 31.1104V35ZM250.566 26.5645V29.9346H252.556C253.677 29.9346 254.326 29.3125 254.326 28.2461C254.326 27.207 253.636 26.5645 252.521 26.5645H250.566ZM250.566 31.2881V35H248.803V25.1357H252.72C254.852 25.1357 256.131 26.3184 256.131 28.2051C256.131 29.5107 255.447 30.5977 254.271 31.0215L256.425 35H254.415L252.474 31.2881H250.566ZM259.596 35H257.833V25.1357H259.596V35ZM270.246 30.8848C270.246 33.5576 268.647 35.1641 265.947 35.1641C263.069 35.1641 261.278 33.209 261.278 30.0303C261.278 26.8994 263.062 24.9717 265.912 24.9717C268.155 24.9717 269.85 26.2979 270.171 28.2734H268.38C268.045 27.1387 267.129 26.4688 265.919 26.4688C264.142 26.4688 263.082 27.7881 263.082 30.0098C263.082 32.2793 264.19 33.667 265.967 33.667C267.457 33.667 268.49 32.7236 268.517 31.3428L268.524 31.1787H266.145V29.832H270.246V30.8848ZM280.288 35H278.531V30.7207H273.732V35H271.969V25.1357H273.732V29.2373H278.531V25.1357H280.288V35ZM286.481 35H284.724V26.626H281.771V25.1357H289.428V26.626H286.481V35ZM293.768 28.082C293.768 26.2432 295.244 24.9375 297.295 24.9375C299.305 24.9375 300.645 26.1748 300.645 27.7607C300.645 28.9297 300.091 29.6953 298.368 31.3906L296.195 33.5234V33.5576H300.795V35H293.864V33.7969L297.35 30.3652C298.635 29.1006 298.922 28.6084 298.922 27.8701C298.922 27.0088 298.273 26.3525 297.295 26.3525C296.229 26.3525 295.422 27.0771 295.422 28.082H293.768ZM306.113 35.1982C303.68 35.1982 302.23 33.2227 302.23 30.0576C302.23 26.9062 303.693 24.9375 306.113 24.9375C308.526 24.9375 309.982 26.8926 309.982 30.0508C309.982 33.209 308.54 35.1982 306.113 35.1982ZM306.113 33.7559C307.446 33.7559 308.205 32.3955 308.205 30.0576C308.205 27.7471 307.433 26.3799 306.113 26.3799C304.787 26.3799 304.008 27.7539 304.008 30.0508C304.008 32.3887 304.773 33.7559 306.113 33.7559ZM311.39 28.082C311.39 26.2432 312.867 24.9375 314.918 24.9375C316.927 24.9375 318.267 26.1748 318.267 27.7607C318.267 28.9297 317.714 29.6953 315.991 31.3906L313.817 33.5234V33.5576H318.418V35H311.486V33.7969L314.972 30.3652C316.257 29.1006 316.545 28.6084 316.545 27.8701C316.545 27.0088 315.895 26.3525 314.918 26.3525C313.851 26.3525 313.045 27.0771 313.045 28.082H311.39ZM324.488 35V33.1064H319.566V31.6025C320.42 29.9961 321.521 28.2461 323.661 25.1357H326.169V31.6572H327.509V33.1064H326.169V35H324.488ZM321.152 31.6504V31.6982H324.515V26.4482H324.488C322.895 28.7314 321.938 30.2148 321.152 31.6504ZM336.573 31.7529H332.082V30.2354H336.573V31.7529ZM348.071 35L347.23 32.4502H343.6L342.759 35H340.941L344.441 25.1357H346.43L349.93 35H348.071ZM345.391 26.8789L344.01 31.0898H346.813L345.439 26.8789H345.391ZM355.111 35.1641C352.295 35.1641 350.524 33.2295 350.524 30.0645C350.524 26.9199 352.309 24.9717 355.111 24.9717C357.401 24.9717 359.145 26.4004 359.363 28.5195H357.627C357.395 27.2822 356.39 26.4688 355.111 26.4688C353.416 26.4688 352.329 27.8633 352.329 30.0645C352.329 32.2793 353.409 33.667 355.118 33.667C356.424 33.667 357.36 32.9629 357.634 31.7734H359.363C359.056 33.8857 357.442 35.1641 355.111 35.1641ZM362.747 35H360.983V25.1357H367.272V26.626H362.747V29.5381H366.883V30.9736H362.747V35ZM373.089 35.1641C370.273 35.1641 368.502 33.2295 368.502 30.0645C368.502 26.9199 370.287 24.9717 373.089 24.9717C375.379 24.9717 377.122 26.4004 377.341 28.5195H375.605C375.372 27.2822 374.368 26.4688 373.089 26.4688C371.394 26.4688 370.307 27.8633 370.307 30.0645C370.307 32.2793 371.387 33.667 373.096 33.667C374.402 33.667 375.338 32.9629 375.612 31.7734H377.341C377.034 33.8857 375.42 35.1641 373.089 35.1641ZM386.296 35.1641C383.479 35.1641 381.709 33.2295 381.709 30.0645C381.709 26.9199 383.493 24.9717 386.296 24.9717C388.586 24.9717 390.329 26.4004 390.548 28.5195H388.811C388.579 27.2822 387.574 26.4688 386.296 26.4688C384.6 26.4688 383.514 27.8633 383.514 30.0645C383.514 32.2793 384.594 33.667 386.303 33.667C387.608 33.667 388.545 32.9629 388.818 31.7734H390.548C390.24 33.8857 388.627 35.1641 386.296 35.1641ZM395.203 35.1436C393.077 35.1436 391.696 33.7285 391.696 31.377C391.696 29.0391 393.09 27.6035 395.203 27.6035C397.315 27.6035 398.71 29.0322 398.71 31.377C398.71 33.7285 397.329 35.1436 395.203 35.1436ZM395.203 33.7969C396.283 33.7969 396.98 32.9219 396.98 31.377C396.98 29.8389 396.283 28.957 395.203 28.957C394.129 28.957 393.425 29.8389 393.425 31.377C393.425 32.9219 394.123 33.7969 395.203 33.7969ZM395.859 24.6367L397.575 26.749H396.214L395.223 25.4912H395.182L394.191 26.749H392.831L394.546 24.6367H395.859ZM400.083 35V27.7539H401.717V28.998H401.751C402.141 28.1367 402.913 27.6172 404.028 27.6172C405.627 27.6172 406.536 28.6426 406.536 30.3174V35H404.834V30.6592C404.834 29.6338 404.356 29.0596 403.385 29.0596C402.408 29.0596 401.785 29.7637 401.785 30.8027V35H400.083ZM411.383 33.6533C412.47 33.6533 413.174 32.7715 413.174 31.3564C413.174 29.9482 412.47 29.0322 411.383 29.0322C410.31 29.0322 409.626 29.9346 409.626 31.3564C409.626 32.792 410.31 33.6533 411.383 33.6533ZM411.376 37.7344C409.585 37.7344 408.3 36.8184 408.129 35.5469H409.817C410.002 36.1006 410.624 36.4766 411.431 36.4766C412.538 36.4766 413.174 35.8545 413.174 34.9316V33.708H413.133C412.757 34.4873 411.902 35.0068 410.863 35.0068C409.072 35.0068 407.883 33.6055 407.883 31.3496C407.883 29.0596 409.045 27.6309 410.897 27.6309C411.93 27.6309 412.764 28.1641 413.181 28.998H413.208V27.7539H414.876V34.8838C414.876 36.6133 413.488 37.7344 411.376 37.7344ZM423.967 35H422.21V26.626H419.257V25.1357H426.914V26.626H423.967V35ZM427.925 37.6934C427.822 37.6934 427.344 37.6865 427.255 37.666V36.3193C427.344 36.3398 427.645 36.3467 427.747 36.3467C428.451 36.3467 428.814 36.0801 428.998 35.4102C428.998 35.3896 429.108 35.0273 429.101 35.0068L426.524 27.7539H428.383L430.085 33.5508H430.119L431.828 27.7539H433.619L430.994 35.2871C430.379 37.085 429.579 37.6934 427.925 37.6934ZM442.13 35H440.373V26.626H437.42V25.1357H445.076V26.626H442.13V35ZM448.268 35H446.566V25.1357H448.097L452.992 32.0469H453.053V25.1357H454.748V35H453.231L448.329 28.082H448.268V35ZM465.091 35H463.334V30.7207H458.535V35H456.772V25.1357H458.535V29.2373H463.334V25.1357H465.091V35ZM475.433 35H473.677V30.7207H468.878V35H467.114V25.1357H468.878V29.2373H473.677V25.1357H475.433V35ZM484.709 35H482.952V26.626H479.999V25.1357H487.655V26.626H484.709V35ZM489.022 35V25.1357H490.704V28.998H490.738C491.128 28.1162 491.928 27.6172 493.028 27.6172C494.628 27.6172 495.564 28.6699 495.564 30.3311V35H493.862V30.6797C493.862 29.668 493.356 29.0596 492.372 29.0596C491.347 29.0596 490.725 29.7705 490.725 30.8369V35H489.022ZM500.418 33.7969C501.505 33.7969 502.195 32.9082 502.195 31.377C502.195 29.8457 501.498 28.957 500.418 28.957C499.338 28.957 498.64 29.8457 498.64 31.377C498.64 32.915 499.331 33.7969 500.418 33.7969ZM503.924 31.459C503.924 33.7012 502.516 35.1436 500.438 35.1436C498.285 35.1436 496.911 33.7148 496.911 31.377C496.911 29.0459 498.292 27.6035 500.418 27.6035C501.361 27.6035 501.71 27.8633 502.325 27.8633C502.858 27.8633 503.049 27.7061 503.049 27.2822V26.3389H504.437V27.7334C504.437 28.4717 504.013 28.9297 503.309 28.9297H503.084V28.9639C503.61 29.5518 503.924 30.3994 503.924 31.459ZM499.816 26.749L498.251 24.6367H499.878L501.012 26.749H499.816ZM505.954 35V27.7539H507.657V35H505.954ZM506.795 26.6602C506.283 26.6602 505.866 26.2432 505.866 25.7373C505.866 25.2246 506.283 24.8145 506.795 24.8145C507.322 24.8145 507.732 25.2246 507.732 25.7373C507.732 26.2432 507.322 26.6602 506.795 26.6602ZM516.789 35H515.032V26.626H512.079V25.1357H519.735V26.626H516.789V35ZM519.892 35V27.7539H521.526V29.0186H521.56C521.806 28.1367 522.442 27.6309 523.296 27.6309C523.515 27.6309 523.707 27.6719 523.83 27.6992V29.2373C523.686 29.1826 523.426 29.1416 523.139 29.1416C522.175 29.1416 521.594 29.7637 521.594 30.7822V35H519.892ZM527.466 33.8311C528.43 33.8311 529.202 33.1885 529.202 32.3135V31.7598L527.528 31.8623C526.707 31.917 526.236 32.2861 526.236 32.8604C526.236 33.4551 526.728 33.8311 527.466 33.8311ZM526.953 35.1162C525.552 35.1162 524.533 34.2344 524.533 32.9287C524.533 31.6436 525.525 30.8711 527.288 30.7617L529.202 30.6523V30.1328C529.202 29.374 528.69 28.9365 527.849 28.9365C527.042 28.9365 526.53 29.3262 526.42 29.9277H524.841C524.916 28.5742 526.072 27.6035 527.917 27.6035C529.715 27.6035 530.884 28.5537 530.884 30.0098V35H529.243V33.8447H529.209C528.792 34.6309 527.883 35.1162 526.953 35.1162ZM532.538 35V27.7539H534.172V28.998H534.206C534.596 28.1367 535.368 27.6172 536.482 27.6172C538.082 27.6172 538.991 28.6426 538.991 30.3174V35H537.289V30.6592C537.289 29.6338 536.811 29.0596 535.84 29.0596C534.862 29.0596 534.24 29.7637 534.24 30.8027V35H532.538ZM543.838 33.6533C544.925 33.6533 545.629 32.7715 545.629 31.3564C545.629 29.9482 544.925 29.0322 543.838 29.0322C542.764 29.0322 542.081 29.9346 542.081 31.3564C542.081 32.792 542.764 33.6533 543.838 33.6533ZM543.831 37.7344C542.04 37.7344 540.755 36.8184 540.584 35.5469H542.272C542.457 36.1006 543.079 36.4766 543.885 36.4766C544.993 36.4766 545.629 35.8545 545.629 34.9316V33.708H545.588C545.212 34.4873 544.357 35.0068 543.318 35.0068C541.527 35.0068 540.338 33.6055 540.338 31.3496C540.338 29.0596 541.5 27.6309 543.352 27.6309C544.384 27.6309 545.218 28.1641 545.635 28.998H545.663V27.7539H547.331V34.8838C547.331 36.6133 545.943 37.7344 543.831 37.7344ZM559.184 35L558.363 34.1182C557.591 34.7881 556.463 35.1709 555.274 35.1709C553.236 35.1709 551.883 34.0635 551.883 32.4023C551.883 31.2676 552.471 30.4268 553.749 29.7363C553.886 29.668 554.132 29.5312 554.166 29.5176C553.277 28.5879 552.943 27.9658 552.943 27.248C552.943 25.9561 554.084 24.9922 555.629 24.9922C557.181 24.9922 558.281 25.9219 558.281 27.2275C558.281 28.2393 557.659 29.0186 556.244 29.7773L558.322 32.0264C558.596 31.5342 558.719 30.8643 558.719 29.8867V29.4492H560.195V29.9619C560.195 31.2744 559.902 32.334 559.368 33.1064L561.166 35H559.184ZM554.699 30.6045C553.852 31.1309 553.51 31.6094 553.51 32.2725C553.51 33.2295 554.289 33.8789 555.444 33.8789C556.217 33.8789 557.003 33.5781 557.434 33.1064L554.986 30.4473C554.904 30.4814 554.754 30.5635 554.699 30.6045ZM555.417 28.9365C556.415 28.4238 556.812 27.9658 556.812 27.3301C556.812 26.6602 556.333 26.1885 555.636 26.1885C554.945 26.1885 554.453 26.6738 554.453 27.3369C554.453 27.8223 554.713 28.2461 555.417 28.9365ZM575.46 35H573.874V28H573.826L570.975 35H569.772L566.921 28H566.874V35H565.281V25.1357H567.325L570.346 32.6621H570.401L573.422 25.1357H575.46V35ZM578.125 37.6934C578.023 37.6934 577.544 37.6865 577.455 37.666V36.3193C577.544 36.3398 577.845 36.3467 577.948 36.3467C578.652 36.3467 579.014 36.0801 579.199 35.4102C579.199 35.3896 579.308 35.0273 579.301 35.0068L576.724 27.7539H578.583L580.285 33.5508H580.32L582.029 27.7539H583.82L581.195 35.2871C580.579 37.085 579.78 37.6934 578.125 37.6934ZM581.16 26.7148C580.183 26.7148 579.944 25.8193 579.465 25.8193C579.158 25.8193 578.952 26.0654 578.952 26.6602H577.975C577.975 25.4707 578.563 24.8213 579.438 24.8213C580.429 24.8213 580.641 25.7168 581.126 25.7168C581.468 25.7168 581.659 25.4502 581.659 24.876H582.637C582.63 26.0381 582.042 26.7148 581.16 26.7148ZM588.16 25.1357H591.995C593.957 25.1357 595.317 26.4688 595.317 28.4375C595.317 30.4062 593.916 31.7393 591.92 31.7393H589.924V35H588.16V25.1357ZM589.924 26.5781V30.3174H591.523C592.788 30.3174 593.526 29.6338 593.526 28.4375C593.526 27.2549 592.795 26.5781 591.53 26.5781H589.924ZM596.766 35V25.1357H598.448V28.998H598.482C598.872 28.1162 599.671 27.6172 600.772 27.6172C602.372 27.6172 603.308 28.6699 603.308 30.3311V35H601.606V30.6797C601.606 29.668 601.1 29.0596 600.116 29.0596C599.09 29.0596 598.468 29.7705 598.468 30.8369V35H596.766ZM607.601 33.8311C608.565 33.8311 609.337 33.1885 609.337 32.3135V31.7598L607.662 31.8623C606.842 31.917 606.37 32.2861 606.37 32.8604C606.37 33.4551 606.862 33.8311 607.601 33.8311ZM607.088 35.1162C605.687 35.1162 604.668 34.2344 604.668 32.9287C604.668 31.6436 605.659 30.8711 607.423 30.7617L609.337 30.6523V30.1328C609.337 29.374 608.824 28.9365 607.984 28.9365C607.177 28.9365 606.664 29.3262 606.555 29.9277H604.976C605.051 28.5742 606.206 27.6035 608.052 27.6035C609.85 27.6035 611.019 28.5537 611.019 30.0098V35H609.378V33.8447H609.344C608.927 34.6309 608.018 35.1162 607.088 35.1162ZM608.708 23.4062V22.5996C608.893 22.5107 609.221 22.4492 609.508 22.4492C610.41 22.4492 610.985 22.9277 610.985 23.6797C610.985 24.3428 610.615 24.8281 609.925 25.0742L609.371 24.4863C609.761 24.3359 609.98 24.0693 609.98 23.7822C609.98 23.4883 609.72 23.29 609.358 23.29C609.125 23.29 608.913 23.3311 608.708 23.4062ZM608.64 24.7256L610.465 26.7627H609.084L608.004 25.5391H607.963L606.883 26.7627H605.502L607.327 24.7256H608.64ZM612.673 35V27.7539H614.307V29.0117H614.341C614.655 28.1709 615.421 27.6172 616.405 27.6172C617.431 27.6172 618.162 28.1436 618.429 29.0732H618.47C618.818 28.1777 619.68 27.6172 620.725 27.6172C622.154 27.6172 623.091 28.5811 623.091 30.0303V35H621.389V30.4473C621.389 29.5586 620.924 29.0527 620.09 29.0527C619.269 29.0527 618.709 29.6543 618.709 30.5225V35H617.055V30.3584C617.055 29.5518 616.562 29.0527 615.769 29.0527C614.949 29.0527 614.375 29.6885 614.375 30.5635V35H612.673ZM634.438 35L633.597 32.4502H629.967L629.126 35H627.308L630.808 25.1357H632.797L636.297 35H634.438ZM631.758 26.8789L630.377 31.0898H633.18L631.806 26.8789H631.758ZM631.143 22.2988H632.455L634.24 24.3906H632.879L631.82 23.1055H631.779L630.719 24.3906H629.359L631.143 22.2988ZM643.659 27.7539V35H642.019V33.7422H641.984C641.602 34.624 640.87 35.1299 639.77 35.1299C638.197 35.1299 637.199 34.1113 637.199 32.4365V27.7539H638.901V32.0947C638.901 33.1338 639.407 33.6943 640.364 33.6943C641.349 33.6943 641.957 32.9971 641.957 31.9443V27.7539H643.659ZM652.839 35.1641C650.023 35.1641 648.252 33.2295 648.252 30.0645C648.252 26.9199 650.037 24.9717 652.839 24.9717C655.129 24.9717 656.873 26.4004 657.091 28.5195H655.355C655.123 27.2822 654.118 26.4688 652.839 26.4688C651.144 26.4688 650.057 27.8633 650.057 30.0645C650.057 32.2793 651.137 33.667 652.846 33.667C654.152 33.667 655.088 32.9629 655.362 31.7734H657.091C656.784 33.8857 655.17 35.1641 652.839 35.1641ZM658.588 35V25.1357H660.27V28.998H660.304C660.694 28.1162 661.493 27.6172 662.594 27.6172C664.194 27.6172 665.13 28.6699 665.13 30.3311V35H663.428V30.6797C663.428 29.668 662.922 29.0596 661.938 29.0596C660.912 29.0596 660.29 29.7705 660.29 30.8369V35H658.588ZM669.423 33.8311C670.387 33.8311 671.159 33.1885 671.159 32.3135V31.7598L669.484 31.8623C668.664 31.917 668.192 32.2861 668.192 32.8604C668.192 33.4551 668.685 33.8311 669.423 33.8311ZM668.91 35.1162C667.509 35.1162 666.49 34.2344 666.49 32.9287C666.49 31.6436 667.481 30.8711 669.245 30.7617L671.159 30.6523V30.1328C671.159 29.374 670.646 28.9365 669.806 28.9365C668.999 28.9365 668.486 29.3262 668.377 29.9277H666.798C666.873 28.5742 668.028 27.6035 669.874 27.6035C671.672 27.6035 672.841 28.5537 672.841 30.0098V35H671.2V33.8447H671.166C670.749 34.6309 669.84 35.1162 668.91 35.1162ZM670.462 24.6367L672.178 26.749H670.817L669.826 25.4912H669.785L668.794 26.749H667.434L669.149 24.6367H670.462ZM680.921 27.7539V35H679.28V33.7422H679.246C678.863 34.624 678.132 35.1299 677.031 35.1299C675.459 35.1299 674.461 34.1113 674.461 32.4365V27.7539H676.163V32.0947C676.163 33.1338 676.669 33.6943 677.626 33.6943C678.61 33.6943 679.218 32.9971 679.218 31.9443V27.7539H680.921ZM683.785 35.0752C683.231 35.0752 682.8 34.6445 682.8 34.0908C682.8 33.5439 683.231 33.1064 683.785 33.1064C684.331 33.1064 684.762 33.5439 684.762 34.0908C684.762 34.6445 684.331 35.0752 683.785 35.0752Z" fill="#D5D6DA"/>
<defs>
<clipPath id="clip0_6146_42">
<rect width="35" height="35" fill="white" transform="translate(1463 12)"/>
</clipPath>
<clipPath id="clip1_6146_42">
<rect width="35" height="35" fill="white" transform="translate(1578 12)"/>
</clipPath>
<clipPath id="clip2_6146_42">
<rect width="35" height="35" fill="white" transform="translate(1633 12)"/>
</clipPath>
<clipPath id="clip3_6146_42">
<rect width="35" height="35" fill="white" transform="translate(1688 12)"/>
</clipPath>
</defs>
</svg>
