<svg width="603" height="602" viewBox="0 0 603 602" fill="none" xmlns="http://www.w3.org/2000/svg">
<path d="M414.263 265.696L407.386 246.153L400.645 248.525L399.158 244.297L417.071 237.994L418.559 242.222L411.784 244.606L418.66 264.149L414.263 265.696ZM438.91 257.482C436.917 258.183 435.084 258.415 433.411 258.177C431.744 257.923 430.288 257.221 429.043 256.069C427.81 254.913 426.84 253.333 426.135 251.329L420.961 236.625L425.359 235.077L430.533 249.782C431.166 251.582 432.034 252.765 433.137 253.331C434.239 253.897 435.668 253.871 437.422 253.254C438.531 252.864 439.398 252.362 440.022 251.748C440.645 251.134 441.008 250.377 441.111 249.475C441.21 248.563 441.04 247.484 440.602 246.239L435.428 231.535L439.843 229.981L445.017 244.686C445.606 246.361 445.863 247.886 445.787 249.261C445.722 250.632 445.39 251.856 444.789 252.933C444.196 253.994 443.391 254.907 442.375 255.671C441.355 256.424 440.2 257.028 438.91 257.482ZM426.263 232.279L429.222 225.284L434.519 223.42L430.338 230.845L426.263 232.279ZM453.671 251.83L445.307 228.058L449.705 226.511L458.069 250.282L453.671 251.83ZM477.472 243.455L470.595 223.912L463.854 226.284L462.367 222.056L480.28 215.753L481.768 219.981L474.993 222.365L481.869 241.908L477.472 243.455ZM501.377 235.502C499.475 236.171 497.737 236.382 496.161 236.135C494.582 235.877 493.176 235.296 491.943 234.395C490.717 233.478 489.662 232.36 488.779 231.043C487.895 229.725 487.195 228.331 486.677 226.859C486.159 225.388 485.832 223.862 485.696 222.281C485.56 220.701 485.684 219.175 486.07 217.704C486.462 216.217 487.196 214.884 488.269 213.705C489.339 212.515 490.824 211.585 492.726 210.916C494.628 210.246 496.362 210.043 497.93 210.306C499.506 210.553 500.906 211.135 502.132 212.052C503.366 212.954 504.418 214.065 505.29 215.387C506.174 216.704 506.874 218.099 507.392 219.57C507.91 221.042 508.237 222.568 508.373 224.148C508.521 225.725 508.398 227.256 508.005 228.743C507.62 230.214 506.892 231.545 505.823 232.736C504.761 233.911 503.279 234.833 501.377 235.502ZM499.889 231.274C500.953 230.9 501.766 230.334 502.326 229.577C502.898 228.816 503.269 227.954 503.439 226.991C503.609 226.028 503.631 225.041 503.504 224.03C503.373 223.007 503.152 222.054 502.841 221.171C502.507 220.221 502.07 219.306 501.532 218.426C501.001 217.532 500.372 216.774 499.644 216.152C498.924 215.515 498.107 215.09 497.192 214.878C496.285 214.65 495.288 214.727 494.202 215.11C493.104 215.496 492.269 216.07 491.697 216.83C491.136 217.587 490.773 218.453 490.607 219.427C490.448 220.386 490.434 221.377 490.565 222.4C490.703 223.407 490.93 224.358 491.244 225.252C491.575 226.192 492.004 227.103 492.531 227.986C493.069 228.865 493.704 229.621 494.436 230.254C495.179 230.883 496.002 231.306 496.905 231.523C497.819 231.735 498.814 231.652 499.889 231.274ZM520.551 228.297L513.674 208.754L506.933 211.126L505.446 206.898L523.359 200.595L524.847 204.823L518.072 207.207L524.948 226.75L520.551 228.297ZM535.717 222.961L527.353 199.19L543.416 193.538L544.885 197.715L533.22 201.819L535.061 207.049L541.971 204.617L543.441 208.794L536.53 211.226L538.633 217.203L551.011 212.847L552.493 217.058L535.717 222.961Z" fill="white"/>
<path d="M195.409 243.081L189.722 263.003L196.593 264.965L195.363 269.275L177.102 264.061L178.333 259.752L185.239 261.723L190.927 241.801L195.409 243.081ZM170.55 235.534C172.581 236.114 174.21 236.985 175.439 238.147C176.652 239.317 177.434 240.732 177.783 242.392C178.122 244.048 177.999 245.898 177.416 247.94L173.137 262.929L168.654 261.649L172.933 246.66C173.457 244.825 173.433 243.358 172.861 242.259C172.288 241.16 171.108 240.355 169.319 239.844C168.189 239.521 167.191 239.43 166.328 239.57C165.464 239.711 164.73 240.119 164.125 240.795C163.517 241.482 163.032 242.461 162.669 243.73L158.39 258.719L153.89 257.434L158.169 242.445C158.657 240.737 159.329 239.344 160.186 238.266C161.031 237.185 162.01 236.378 163.123 235.847C164.22 235.325 165.405 235.045 166.675 235.009C167.943 234.984 169.234 235.159 170.55 235.534ZM166.298 263.41L159.84 267.407L154.44 265.865L162.144 262.224L166.298 263.41ZM155.237 231.612L148.319 255.844L143.836 254.564L150.755 230.332L155.237 231.612ZM130.976 224.685L125.289 244.607L132.16 246.569L130.93 250.879L112.669 245.666L113.9 241.356L120.806 243.328L126.493 223.406L130.976 224.685ZM106.873 217.355C108.811 217.908 110.352 218.741 111.494 219.853C112.634 220.977 113.446 222.264 113.931 223.713C114.401 225.17 114.615 226.691 114.574 228.277C114.533 229.862 114.299 231.405 113.871 232.905C113.442 234.405 112.827 235.84 112.024 237.208C111.222 238.576 110.238 239.749 109.073 240.727C107.893 241.713 106.524 242.376 104.967 242.718C103.406 243.071 101.656 242.971 99.7174 242.417C97.7789 241.864 96.2458 241.027 95.1181 239.906C93.9756 238.794 93.1693 237.509 92.6992 236.052C92.2143 234.603 91.9981 233.088 92.0505 231.505C92.0914 229.92 92.326 228.377 92.7543 226.877C93.1825 225.377 93.7979 223.942 94.6004 222.574C95.3913 221.203 96.3767 220.024 97.5568 219.038C98.7219 218.06 100.085 217.395 101.646 217.042C103.192 216.697 104.934 216.801 106.873 217.355ZM105.642 221.665C104.558 221.355 103.568 221.347 102.673 221.64C101.766 221.931 100.965 222.42 100.27 223.107C99.5744 223.795 98.9861 224.588 98.505 225.486C98.0206 226.396 97.6499 227.301 97.3929 228.201C97.1162 229.17 96.9433 230.169 96.8743 231.198C96.7904 232.235 96.8656 233.217 97.0999 234.145C97.3193 235.081 97.7406 235.9 98.3638 236.602C98.9722 237.313 99.8302 237.826 100.938 238.142C102.057 238.462 103.07 238.476 103.977 238.186C104.872 237.892 105.669 237.396 106.367 236.697C107.051 236.006 107.635 235.206 108.12 234.296C108.589 233.394 108.954 232.488 109.215 231.576C109.488 230.618 109.665 229.627 109.746 228.602C109.815 227.573 109.734 226.589 109.503 225.649C109.26 224.707 108.833 223.886 108.221 223.187C107.598 222.485 106.739 221.977 105.642 221.665ZM87.0629 212.148L81.3752 232.07L88.2466 234.032L87.0162 238.342L68.7558 233.129L69.9862 228.819L76.8923 230.79L82.58 210.868L87.0629 212.148ZM71.6027 207.734L64.6845 231.966L48.3108 227.292L49.5264 223.034L61.4173 226.428L62.9393 221.097L55.8947 219.086L57.1103 214.828L64.1549 216.84L65.8943 210.747L53.2764 207.145L54.5019 202.852L71.6027 207.734Z" fill="#C50002"/>
<path d="M425.333 361.665C423.594 360.822 422.256 359.773 421.317 358.518C420.384 357.252 419.793 355.872 419.544 354.378C419.3 352.872 419.322 351.329 419.608 349.748C419.911 348.161 420.421 346.628 421.138 345.148C421.824 343.734 422.696 342.43 423.755 341.236C424.825 340.048 426.034 339.08 427.382 338.334C428.742 337.593 430.207 337.183 431.779 337.105C433.356 337.016 434.997 337.385 436.703 338.212C438.15 338.914 439.26 339.732 440.034 340.667C440.818 341.607 441.373 342.61 441.697 343.674C442.037 344.732 442.265 345.789 442.38 346.845L437.666 347.16C437.541 346.153 437.277 345.198 436.874 344.296C436.482 343.399 435.779 342.705 434.764 342.213C433.706 341.7 432.705 341.508 431.762 341.638C430.83 341.772 429.967 342.121 429.174 342.683C428.382 343.246 427.674 343.936 427.05 344.754C426.432 345.561 425.914 346.397 425.495 347.261C425.019 348.243 424.66 349.243 424.421 350.261C424.181 351.278 424.104 352.261 424.191 353.21C424.278 354.159 424.567 355.019 425.06 355.792C425.557 356.553 426.298 357.172 427.28 357.648C428.025 358.009 428.781 358.169 429.548 358.128C430.326 358.091 431.029 357.879 431.658 357.49C432.291 357.091 432.781 356.535 433.127 355.822L433.331 355.401L429.476 353.532L431.4 349.564L439.579 353.529L437.993 356.801C437.061 358.723 435.901 360.167 434.512 361.134C433.139 362.096 431.653 362.616 430.055 362.694C428.472 362.767 426.898 362.424 425.333 361.665ZM447.43 372.378C445.616 371.499 444.242 370.413 443.308 369.12C442.38 367.816 441.802 366.409 441.574 364.898C441.362 363.382 441.414 361.847 441.727 360.292C442.041 358.737 442.538 357.258 443.219 355.854C443.899 354.45 444.753 353.144 445.779 351.934C446.806 350.725 447.977 349.739 449.293 348.977C450.626 348.209 452.089 347.792 453.682 347.724C455.28 347.645 456.986 348.046 458.8 348.925C460.614 349.805 461.98 350.894 462.898 352.192C463.831 353.485 464.404 354.889 464.616 356.406C464.843 357.916 464.795 359.447 464.47 360.996C464.157 362.551 463.659 364.03 462.979 365.434C462.298 366.838 461.445 368.144 460.418 369.354C459.403 370.568 458.229 371.559 456.896 372.327C455.58 373.089 454.123 373.509 452.524 373.588C450.942 373.661 449.244 373.258 447.43 372.378ZM449.385 368.345C450.4 368.837 451.374 369.016 452.306 368.881C453.249 368.752 454.122 368.408 454.926 367.851C455.729 367.294 456.446 366.614 457.074 365.812C457.709 364.999 458.23 364.172 458.638 363.33C459.078 362.423 459.42 361.468 459.666 360.467C459.927 359.46 460.023 358.48 459.952 357.525C459.897 356.565 459.624 355.686 459.131 354.887C458.654 354.082 457.897 353.429 456.861 352.926C455.813 352.418 454.818 352.229 453.875 352.359C452.943 352.493 452.072 352.845 451.264 353.413C450.471 353.975 449.757 354.663 449.123 355.476C448.505 356.283 447.989 357.113 447.576 357.966C447.141 358.862 446.796 359.809 446.54 360.805C446.294 361.806 446.204 362.789 446.27 363.754C446.346 364.725 446.625 365.607 447.107 366.401C447.6 367.2 448.359 367.848 449.385 368.345ZM453.105 344.044L460.22 341.252L464.01 343.09L466.192 350.389L462.5 348.598L460.812 344.859L456.814 345.842L453.105 344.044ZM465.557 344.479L472.607 341.656L477.66 344.106L469.444 346.364L465.557 344.479ZM461.848 378.888L472.841 356.213L477.036 358.247L466.043 380.922L461.848 378.888ZM487.992 392.004C486.231 391.15 484.906 390.088 484.016 388.816C483.136 387.549 482.596 386.174 482.396 384.69C482.211 383.2 482.287 381.683 482.622 380.139C482.957 378.594 483.468 377.115 484.154 375.7C484.803 374.361 485.627 373.087 486.627 371.878C487.642 370.664 488.803 369.659 490.108 368.865C491.429 368.065 492.865 367.608 494.414 367.492C495.964 367.377 497.608 367.74 499.346 368.583C500.783 369.279 501.912 370.127 502.735 371.126C503.562 372.114 504.136 373.159 504.455 374.261C504.791 375.357 504.94 376.41 504.904 377.419L500.299 377.347C500.204 376.607 500.059 375.943 499.864 375.355C499.674 374.757 499.383 374.229 498.991 373.772C498.615 373.31 498.087 372.914 497.407 372.584C496.435 372.113 495.505 371.955 494.616 372.111C493.732 372.256 492.904 372.615 492.133 373.188C491.362 373.761 490.67 374.459 490.058 375.282C489.445 376.105 488.929 376.949 488.511 377.813C488.066 378.73 487.72 379.69 487.475 380.691C487.23 381.692 487.137 382.668 487.197 383.617C487.257 384.566 487.501 385.424 487.929 386.192C488.362 386.949 489.032 387.547 489.939 387.987C490.911 388.458 491.857 388.583 492.777 388.363C493.714 388.137 494.648 387.723 495.58 387.121L498.72 390.424C497.726 391.235 496.66 391.879 495.523 392.355C494.386 392.83 493.189 393.057 491.933 393.034C490.677 393.012 489.363 392.669 487.992 392.004ZM508.705 402.086C506.891 401.207 505.518 400.121 504.584 398.828C503.656 397.524 503.078 396.117 502.85 394.607C502.638 393.09 502.689 391.555 503.003 390C503.317 388.445 503.814 386.966 504.494 385.562C505.175 384.158 506.029 382.852 507.055 381.642C508.081 380.433 509.253 379.447 510.569 378.685C511.901 377.918 513.364 377.5 514.957 377.432C516.556 377.354 518.262 377.754 520.076 378.634C521.89 379.513 523.256 380.602 524.173 381.9C525.107 383.193 525.68 384.598 525.891 386.114C526.119 387.625 526.071 389.155 525.746 390.704C525.432 392.259 524.935 393.739 524.255 395.142C523.574 396.546 522.721 397.853 521.694 399.062C520.678 400.276 519.504 401.268 518.172 402.035C516.856 402.797 515.398 403.218 513.8 403.296C512.218 403.369 510.519 402.966 508.705 402.086ZM510.661 398.053C511.676 398.546 512.649 398.724 513.582 398.589C514.525 398.46 515.398 398.116 516.201 397.559C517.005 397.002 517.721 396.322 518.35 395.52C518.984 394.707 519.505 393.88 519.914 393.038C520.354 392.131 520.696 391.177 520.942 390.175C521.203 389.169 521.298 388.188 521.228 387.233C521.173 386.273 520.899 385.394 520.406 384.595C519.93 383.79 519.173 383.137 518.136 382.634C517.089 382.126 516.094 381.937 515.151 382.067C514.219 382.202 513.348 382.553 512.539 383.121C511.746 383.684 511.033 384.371 510.399 385.184C509.781 385.991 509.265 386.821 508.851 387.674C508.417 388.571 508.072 389.517 507.815 390.513C507.57 391.514 507.48 392.497 507.545 393.462C507.622 394.433 507.901 395.315 508.383 396.109C508.876 396.908 509.635 397.556 510.661 398.053ZM514.381 373.752L521.496 370.96L525.286 372.798L527.468 380.097L523.775 378.307L522.087 374.568L518.09 375.55L514.381 373.752ZM522.594 369.932C522.866 369.371 523.186 368.932 523.552 368.617C523.924 368.29 524.41 368.059 525.009 367.923C525.33 367.865 525.563 367.798 525.707 367.721C525.862 367.649 525.968 367.554 526.025 367.435C526.162 367.154 526.073 366.938 525.76 366.786C525.36 366.593 524.822 366.712 524.146 367.144L522.873 365.067C523.419 364.491 524.077 364.137 524.848 364.004C525.62 363.871 526.372 363.983 527.107 364.339C527.96 364.752 528.539 365.36 528.844 366.161C529.165 366.957 529.129 367.76 528.736 368.569C528.427 369.206 528.057 369.64 527.625 369.871C527.209 370.096 526.811 370.27 526.432 370.393C526.127 370.472 525.887 370.582 525.711 370.724C525.552 370.86 525.42 371.036 525.315 371.252L522.594 369.932Z" fill="#C50002"/>
<path d="M167.867 334.655C169.733 334.155 171.432 334.072 172.963 334.408C174.497 334.754 175.847 335.411 177.013 336.379C178.182 337.357 179.175 338.538 179.993 339.922C180.803 341.32 181.42 342.813 181.846 344.401C182.253 345.919 182.446 347.476 182.426 349.072C182.395 350.67 182.114 352.193 181.582 353.64C181.039 355.09 180.199 356.359 179.061 357.446C177.927 358.545 176.444 359.34 174.613 359.831C173.06 360.247 171.685 360.355 170.488 360.153C169.279 359.955 168.204 359.56 167.263 358.968C166.313 358.39 165.449 357.739 164.672 357.016L168.03 353.693C168.784 354.374 169.608 354.923 170.503 355.342C171.386 355.763 172.373 355.828 173.462 355.536C174.598 355.232 175.48 354.722 176.109 354.007C176.725 353.295 177.149 352.467 177.381 351.523C177.613 350.579 177.696 349.594 177.633 348.567C177.572 347.553 177.417 346.581 177.169 345.654C176.886 344.599 176.503 343.609 176.018 342.683C175.534 341.756 174.949 340.963 174.262 340.302C173.576 339.641 172.794 339.18 171.916 338.918C171.042 338.668 170.077 338.684 169.022 338.967C168.223 339.181 167.546 339.555 166.993 340.088C166.429 340.624 166.036 341.245 165.815 341.95C165.597 342.667 165.591 343.408 165.796 344.173L165.917 344.625L170.055 343.517L171.196 347.776L162.416 350.129L161.475 346.617C160.922 344.554 160.855 342.702 161.273 341.062C161.682 339.437 162.465 338.071 163.623 336.966C164.771 335.876 166.186 335.105 167.867 334.655ZM144.147 341.011C146.094 340.489 147.844 340.411 149.395 340.778C150.95 341.157 152.308 341.843 153.469 342.836C154.621 343.844 155.587 345.039 156.367 346.42C157.147 347.801 157.739 349.245 158.143 350.752C158.547 352.259 158.756 353.806 158.771 355.392C158.786 356.978 158.545 358.49 158.048 359.927C157.543 361.38 156.71 362.653 155.55 363.746C154.392 364.851 152.84 365.665 150.893 366.187C148.945 366.708 147.2 366.779 145.657 366.397C144.105 366.03 142.753 365.343 141.601 364.334C140.44 363.341 139.475 362.152 138.707 360.768C137.927 359.387 137.335 357.943 136.931 356.436C136.527 354.929 136.318 353.383 136.303 351.796C136.276 350.213 136.516 348.696 137.021 347.243C137.518 345.806 138.345 344.534 139.502 343.429C140.651 342.339 142.199 341.533 144.147 341.011ZM145.307 345.34C144.217 345.632 143.364 346.134 142.747 346.846C142.119 347.561 141.683 348.392 141.44 349.339C141.197 350.286 141.1 351.269 141.149 352.287C141.201 353.316 141.348 354.283 141.591 355.187C141.852 356.161 142.217 357.107 142.686 358.024C143.147 358.957 143.717 359.761 144.395 360.436C145.064 361.127 145.847 361.613 146.742 361.895C147.629 362.191 148.629 362.19 149.742 361.892C150.866 361.591 151.742 361.083 152.371 360.368C152.988 359.656 153.416 358.82 153.656 357.862C153.888 356.918 153.977 355.931 153.925 354.901C153.864 353.886 153.711 352.921 153.466 352.005C153.208 351.043 152.85 350.102 152.392 349.181C151.923 348.263 151.347 347.461 150.666 346.774C149.974 346.09 149.185 345.605 148.302 345.32C147.406 345.038 146.408 345.045 145.307 345.34ZM158.393 366.152L154.839 372.918L150.771 374.009L144.345 369.916L148.309 368.854L152.032 370.577L154.412 367.219L158.393 366.152ZM148.692 373.969L145.208 380.717L139.783 382.171L144.519 375.087L148.692 373.969ZM128.983 345.521L135.506 369.862L131.003 371.069L124.48 346.728L128.983 345.521ZM100.631 352.708C102.521 352.202 104.218 352.138 105.723 352.517C107.217 352.9 108.526 353.587 109.648 354.578C110.763 355.584 111.698 356.78 112.455 358.168C113.212 359.555 113.794 361.008 114.201 362.526C114.586 363.964 114.796 365.467 114.831 367.035C114.858 368.618 114.637 370.137 114.17 371.591C113.694 373.061 112.908 374.346 111.811 375.447C110.715 376.548 109.234 377.349 107.368 377.849C105.826 378.262 104.417 378.36 103.142 378.143C101.869 377.937 100.752 377.522 99.7894 376.898C98.8185 376.289 98.0165 375.59 97.3832 374.803L100.914 371.845C101.469 372.342 102.013 372.749 102.545 373.066C103.081 373.395 103.646 373.604 104.241 373.693C104.828 373.796 105.487 373.75 106.217 373.555C107.26 373.275 108.067 372.786 108.637 372.086C109.211 371.398 109.602 370.585 109.81 369.647C110.019 368.71 110.085 367.729 110.01 366.706C109.934 365.682 109.772 364.707 109.524 363.78C109.26 362.794 108.893 361.843 108.423 360.925C107.954 360.007 107.386 359.209 106.72 358.531C106.053 357.852 105.307 357.362 104.481 357.062C103.658 356.773 102.76 356.759 101.787 357.02C100.743 357.299 99.9459 357.824 99.3941 358.593C98.8338 359.376 98.3982 360.301 98.0872 361.365L93.5519 360.922C93.7723 359.658 94.157 358.474 94.706 357.37C95.255 356.267 96.0118 355.312 96.9763 354.507C97.9408 353.702 99.1591 353.102 100.631 352.708ZM78.3694 358.636C80.3167 358.114 82.0662 358.036 83.6181 358.403C85.173 358.782 86.5308 359.468 87.6915 360.461C88.8437 361.469 89.8098 362.664 90.5898 364.045C91.3699 365.426 91.9618 366.87 92.3656 368.377C92.7693 369.884 92.9787 371.431 92.9937 373.017C93.0088 374.603 92.7679 376.115 92.271 377.552C91.7657 379.005 90.9328 380.277 89.7723 381.371C88.6149 382.476 87.0625 383.29 85.1152 383.812C83.1679 384.333 81.4226 384.403 79.8793 384.022C78.3274 383.655 76.9754 382.968 75.8232 381.959C74.6626 380.966 73.698 379.777 72.9295 378.393C72.1495 377.012 71.5576 375.568 71.1538 374.061C70.7501 372.554 70.5407 371.007 70.5256 369.421C70.499 367.838 70.7383 366.321 71.2437 364.868C71.7405 363.431 72.5677 362.159 73.7251 361.054C74.874 359.964 76.4221 359.157 78.3694 358.636ZM79.5294 362.965C78.4398 363.257 77.5867 363.759 76.9699 364.471C76.3415 365.186 75.9058 366.017 75.6627 366.964C75.4195 367.911 75.3225 368.894 75.3717 369.912C75.4239 370.941 75.5712 371.908 75.8134 372.812C76.0743 373.786 76.4395 374.732 76.9091 375.649C77.3701 376.582 77.9396 377.386 78.6176 378.061C79.287 378.752 80.0695 379.238 80.9649 379.52C81.8519 379.816 82.8518 379.815 83.9645 379.517C85.0889 379.216 85.9652 378.708 86.5936 377.993C87.2103 377.281 87.6387 376.445 87.8787 375.487C88.1103 374.543 88.1999 373.556 88.1477 372.526C88.0869 371.511 87.9339 370.546 87.6885 369.63C87.4308 368.668 87.0729 367.727 86.615 366.806C86.1454 365.888 85.5701 365.086 84.8891 364.399C84.1964 363.715 83.4082 363.23 82.5243 362.945C81.6289 362.663 80.6306 362.67 79.5294 362.965ZM92.6159 383.777L89.0621 390.543L84.9936 391.634L78.5675 387.541L82.5316 386.479L86.2545 388.202L88.6343 384.844L92.6159 383.777ZM88.9038 392.039C89.0653 392.642 89.1108 393.183 89.0403 393.661C88.9728 394.151 88.757 394.644 88.3927 395.139C88.1874 395.393 88.0555 395.596 87.9969 395.749C87.9268 395.904 87.9088 396.045 87.9429 396.173C88.0237 396.474 88.2321 396.58 88.5683 396.49C88.9971 396.375 89.3259 395.933 89.5546 395.163L91.8767 395.902C91.8406 396.694 91.5743 397.393 91.078 397.998C90.5817 398.603 89.9395 399.011 89.1513 399.222C88.2356 399.467 87.4003 399.387 86.6454 398.98C85.8819 398.589 85.3838 397.958 85.1508 397.089C84.9676 396.405 84.9638 395.834 85.1395 395.377C85.3067 394.935 85.4937 394.543 85.7005 394.202C85.8795 393.943 85.989 393.702 86.0289 393.481C86.0603 393.273 86.045 393.054 85.9829 392.822L88.9038 392.039Z" fill="white"/>
<path d="M275.971 208.886L252.485 218.019L250.906 213.959L261.128 199.323C261.282 199.122 261.495 198.859 261.768 198.534C262.025 198.202 262.267 197.915 262.495 197.672C262.262 197.801 261.976 197.944 261.638 198.101C261.285 198.252 261.002 198.368 260.789 198.451L246.966 203.826L245.282 199.498L268.769 190.365L270.276 194.24L260.025 209.1C259.882 209.297 259.677 209.563 259.409 209.9C259.136 210.224 258.886 210.508 258.658 210.751C258.925 210.609 259.218 210.469 259.538 210.332C259.858 210.195 260.136 210.08 260.371 209.989L274.295 204.574L275.971 208.886ZM263.375 175.302C264.105 177.181 264.373 178.911 264.177 180.494C263.97 182.081 263.436 183.505 262.575 184.767C261.698 186.022 260.616 187.113 259.328 188.039C258.04 188.964 256.669 189.71 255.215 190.275C253.761 190.841 252.247 191.217 250.671 191.405C249.096 191.593 247.567 191.518 246.084 191.18C244.585 190.836 243.229 190.147 242.016 189.112C240.791 188.082 239.814 186.627 239.083 184.748C238.352 182.87 238.093 181.142 238.304 179.566C238.5 177.984 239.036 176.565 239.913 175.31C240.774 174.048 241.85 172.96 243.143 172.045C244.431 171.119 245.802 170.374 247.256 169.808C248.71 169.243 250.224 168.867 251.799 168.679C253.37 168.48 254.905 168.553 256.403 168.897C257.887 169.234 259.24 169.918 260.465 170.948C261.674 171.972 262.644 173.423 263.375 175.302ZM259.198 176.926C258.789 175.875 258.197 175.082 257.422 174.546C256.643 173.999 255.769 173.656 254.801 173.518C253.833 173.379 252.846 173.39 251.839 173.55C250.822 173.714 249.877 173.965 249.004 174.304C248.065 174.67 247.164 175.136 246.303 175.702C245.427 176.262 244.689 176.916 244.092 177.663C243.478 178.404 243.08 179.235 242.898 180.156C242.699 181.07 242.809 182.063 243.227 183.137C243.649 184.222 244.249 185.038 245.028 185.584C245.803 186.12 246.68 186.455 247.659 186.589C248.623 186.717 249.614 186.698 250.631 186.534C251.634 186.363 252.577 186.106 253.46 185.763C254.388 185.402 255.285 184.943 256.151 184.388C257.012 183.821 257.747 183.162 258.356 182.41C258.96 181.647 259.356 180.811 259.543 179.901C259.726 178.98 259.611 177.989 259.198 176.926ZM238.59 188.745L231.503 186.016L229.467 180.782L237.024 184.719L238.59 188.745ZM257.241 160.72L233.754 169.853L232.175 165.793L242.398 151.157C242.551 150.956 242.764 150.693 243.037 150.368C243.294 150.036 243.537 149.749 243.764 149.506C243.531 149.635 243.245 149.778 242.907 149.935C242.554 150.086 242.271 150.202 242.058 150.285L228.235 155.661L226.552 151.332L250.038 142.199L251.545 146.074L241.294 160.934C241.152 161.131 240.946 161.398 240.678 161.734C240.405 162.059 240.155 162.343 239.928 162.586C240.194 162.443 240.488 162.303 240.808 162.166C241.127 162.029 241.405 161.914 241.64 161.823L255.564 156.408L257.241 160.72ZM244.613 128.249L221.127 137.382L219.437 133.037L238.713 125.541L234.296 114.184L238.507 112.546L244.613 128.249ZM237.223 109.245L213.736 118.378L207.565 102.508L211.692 100.903L216.174 112.428L221.341 110.419L218.685 103.591L222.812 101.986L225.468 108.814L231.373 106.517L226.617 94.2877L230.777 92.6697L237.223 109.245ZM226.682 82.1385L206.438 99.6097L204.611 94.9124L218.121 83.6138C218.325 83.4442 218.541 83.2702 218.767 83.0919C218.979 82.9067 219.18 82.7449 219.37 82.6063C219.167 82.6467 218.93 82.6812 218.657 82.7098C218.37 82.7315 218.08 82.7477 217.788 82.7582L200.207 83.5885L198.4 78.9415L225.116 78.1122L226.682 82.1385ZM220.607 66.5178L197.121 75.6513L195.431 71.3063L218.918 62.1728L220.607 66.5178ZM202.44 61.767L201.854 63.9842C201.597 63.8525 201.24 63.7142 200.785 63.5694C200.314 63.4178 199.822 63.2939 199.308 63.1976C198.778 63.0944 198.302 63.0609 197.878 63.0969C197.905 63.73 197.778 64.3138 197.497 64.8481C197.215 65.3825 196.734 65.7823 196.051 66.0476C195.224 66.3694 194.457 66.352 193.752 65.9954C193.043 65.6276 192.546 65.0802 192.264 64.3532C191.964 63.5815 191.981 62.8151 192.316 62.0539C192.635 61.286 193.315 60.6997 194.355 60.2953C195.216 59.9604 196.14 59.8199 197.127 59.874C198.098 59.9212 199.05 60.1176 199.983 60.4631C200.911 60.7973 201.73 61.232 202.44 61.767ZM210.925 40.428C211.495 41.8931 211.755 43.324 211.706 44.7208C211.657 46.1176 211.33 47.4292 210.726 48.6557C210.105 49.8754 209.235 50.9478 208.114 51.873L205.121 48.4982C205.999 47.5774 206.611 46.5348 206.957 45.3704C207.287 44.1992 207.232 43.0488 206.793 41.9192C206.327 40.7225 205.706 39.8697 204.929 39.3608C204.147 38.8407 203.275 38.7677 202.313 39.1418C201.654 39.3984 201.188 39.824 200.917 40.4186C200.631 41.0064 200.47 41.719 200.435 42.5566C200.385 43.3873 200.383 44.3088 200.429 45.3209C200.473 46.2952 200.486 47.2881 200.467 48.2996C200.448 49.3112 200.323 50.2804 200.091 51.2075C199.848 52.1388 199.417 52.9826 198.797 53.7388C198.172 54.4838 197.284 55.0802 196.132 55.5282C194.98 55.9762 193.804 56.0796 192.603 55.8385C191.402 55.5975 190.29 55.0062 189.267 54.0649C188.229 53.1167 187.386 51.8094 186.738 50.143C186.207 48.7786 185.972 47.4793 186.033 46.2454C186.078 45.0046 186.363 43.883 186.888 42.8808C187.412 41.8786 188.125 41.0476 189.028 40.3877L191.833 43.7775C191.25 44.3646 190.85 45.0739 190.633 45.9052C190.399 46.7297 190.496 47.69 190.922 48.786C191.322 49.815 191.835 50.5364 192.459 50.9502C193.084 51.364 193.765 51.4274 194.503 51.1403C195.006 50.9446 195.363 50.587 195.573 50.0676C195.768 49.5413 195.878 48.8995 195.906 48.1421C195.929 47.3735 195.925 46.5188 195.894 45.5781C195.846 44.5281 195.845 43.4662 195.891 42.3925C195.921 41.312 196.076 40.2862 196.355 39.3151C196.63 38.3327 197.103 37.447 197.775 36.6579C198.435 35.8732 199.375 35.2438 200.594 34.7697C202.093 34.1869 203.513 34.0658 204.856 34.4063C206.194 34.7356 207.389 35.4234 208.439 36.4697C209.479 37.5204 210.307 38.8398 210.925 40.428Z" fill="white"/>
<path d="M317.667 391.924L340.486 381.232L347.711 396.652L343.701 398.53L338.454 387.333L333.434 389.685L336.542 396.319L332.533 398.197L329.424 391.563L323.687 394.252L329.254 406.134L325.212 408.028L317.667 391.924ZM334.517 407.862L338.412 406.037L342.368 414.48L338.473 416.306L334.517 407.862ZM335.45 429.88L354.474 411.087L356.613 415.651L343.893 427.832C343.701 428.015 343.497 428.203 343.283 428.397C343.085 428.596 342.895 428.771 342.714 428.922C342.914 428.868 343.149 428.817 343.418 428.771C343.704 428.729 343.992 428.694 344.283 428.664L361.767 426.654L363.883 431.169L337.283 433.792L335.45 429.88ZM346.453 454.383C345.598 452.557 345.215 450.848 345.304 449.256C345.404 447.659 345.841 446.202 346.615 444.885C347.405 443.574 348.412 442.413 349.635 441.403C350.858 440.393 352.176 439.556 353.588 438.895C355.001 438.233 356.487 437.755 358.046 437.462C359.605 437.169 361.135 437.141 362.638 437.378C364.156 437.621 365.555 438.217 366.836 439.168C368.127 440.113 369.2 441.499 370.055 443.325C370.911 445.15 371.286 446.856 371.181 448.442C371.092 450.035 370.653 451.486 369.862 452.797C369.088 454.114 368.087 455.273 366.859 456.272C365.636 457.282 364.318 458.118 362.905 458.78C361.493 459.442 360.007 459.919 358.448 460.213C356.894 460.517 355.358 460.547 353.84 460.304C352.337 460.068 350.94 459.476 349.649 458.531C348.374 457.591 347.309 456.208 346.453 454.383ZM350.512 452.481C350.991 453.503 351.634 454.255 352.444 454.737C353.258 455.23 354.152 455.513 355.128 455.586C356.103 455.66 357.087 455.583 358.081 455.356C359.085 455.124 360.011 454.809 360.859 454.412C361.771 453.984 362.638 453.459 363.459 452.835C364.297 452.218 364.988 451.516 365.534 450.73C366.096 449.95 366.438 449.095 366.558 448.164C366.694 447.238 366.518 446.254 366.029 445.211C365.536 444.157 364.882 443.383 364.067 442.89C363.258 442.408 362.361 442.133 361.375 442.064C360.405 442.002 359.417 442.087 358.413 442.319C357.425 442.557 356.501 442.877 355.643 443.279C354.741 443.702 353.877 444.219 353.05 444.832C352.229 445.455 351.54 446.162 350.983 446.953C350.431 447.755 350.093 448.616 349.967 449.536C349.847 450.467 350.028 451.449 350.512 452.481ZM357.392 477.73C356.496 475.817 356.083 474.016 356.153 472.327C356.239 470.644 356.793 469.125 357.815 467.772C358.843 466.429 360.318 465.307 362.241 464.406L376.357 457.792L378.335 462.014L364.219 468.627C362.492 469.437 361.401 470.418 360.947 471.572C360.494 472.725 360.662 474.144 361.451 475.828C361.95 476.893 362.536 477.705 363.209 478.265C363.881 478.824 364.671 479.11 365.578 479.122C366.496 479.129 367.553 478.853 368.748 478.293L382.863 471.68L384.849 475.917L370.734 482.531C369.125 483.284 367.633 483.692 366.257 483.754C364.887 483.826 363.636 483.617 362.505 483.126C361.39 482.642 360.401 481.932 359.539 480.997C358.688 480.058 357.973 478.968 357.392 477.73ZM368.199 500.71C367.369 498.939 367.009 497.279 367.118 495.731C367.233 494.193 367.679 492.784 368.458 491.505C369.253 490.232 370.267 489.1 371.5 488.112C372.733 487.123 374.061 486.296 375.485 485.629C376.832 484.997 378.275 484.527 379.813 484.217C381.366 483.913 382.9 483.864 384.414 484.069C385.944 484.28 387.348 484.828 388.624 485.714C389.901 486.6 390.949 487.918 391.768 489.668C392.446 491.113 392.789 492.482 392.799 493.776C392.82 495.065 392.607 496.238 392.162 497.295C391.732 498.358 391.185 499.27 390.522 500.031L386.99 497.075C387.382 496.441 387.687 495.834 387.906 495.254C388.135 494.669 388.242 494.076 388.225 493.475C388.224 492.879 388.063 492.238 387.742 491.554C387.284 490.576 386.661 489.867 385.872 489.429C385.094 488.985 384.225 488.742 383.265 488.702C382.306 488.661 381.329 488.768 380.334 489.022C379.34 489.275 378.408 489.606 377.539 490.013C376.615 490.446 375.743 490.974 374.922 491.597C374.101 492.221 373.414 492.92 372.863 493.695C372.312 494.47 371.961 495.29 371.81 496.156C371.67 497.017 371.814 497.904 372.241 498.816C372.7 499.794 373.356 500.488 374.21 500.896C375.079 501.31 376.066 501.577 377.169 501.696L377.528 506.239C376.245 506.244 375.012 506.073 373.829 505.726C372.646 505.379 371.573 504.801 370.612 503.993C369.65 503.185 368.846 502.09 368.199 500.71ZM374.108 512.388L396.927 501.697L398.905 505.918L389.859 510.157L394.38 519.806L403.426 515.568L405.404 519.789L382.585 530.481L380.607 526.259L390.354 521.693L385.833 512.043L376.086 516.61L374.108 512.388ZM385.086 535.819L407.905 525.128L415.13 540.547L411.12 542.426L405.874 531.228L400.853 533.58L403.962 540.214L399.952 542.093L396.844 535.459L391.106 538.147L396.673 550.029L392.631 551.923L385.086 535.819ZM394.557 556.035L417.377 545.343L422.242 555.726C423.133 557.627 423.504 559.282 423.355 560.69C423.222 562.104 422.728 563.297 421.871 564.268C421.019 565.25 419.974 566.032 418.735 566.612C417.877 567.014 416.928 567.253 415.89 567.329C414.857 567.415 413.83 567.287 412.808 566.944C411.786 566.601 410.867 565.998 410.052 565.134L402.95 573.948L400.728 569.205L407.343 560.838L405.174 556.209L396.535 560.256L394.557 556.035ZM409.151 554.345L412.069 560.572C412.44 561.365 412.88 561.921 413.387 562.24C413.91 562.565 414.457 562.713 415.026 562.684C415.596 562.656 416.147 562.517 416.68 562.268C417.158 562.044 417.593 561.727 417.984 561.318C418.376 560.91 418.622 560.403 418.723 559.799C418.825 559.195 418.682 558.48 418.295 557.654L415.378 551.428L409.151 554.345Z" fill="white"/>
<path d="M338.049 229.729L315.562 218.355L323.248 203.16L327.199 205.159L321.618 216.193L326.565 218.696L329.871 212.159L333.823 214.157L330.516 220.694L336.17 223.554L342.093 211.845L346.076 213.86L338.049 229.729ZM340.209 206.636L336.37 204.695L340.579 196.375L344.418 198.316L340.209 206.636ZM356.969 192.327L330.444 188.935L332.719 184.438L350.151 186.942C350.414 186.981 350.688 187.025 350.972 187.074C351.251 187.108 351.505 187.149 351.736 187.199C351.57 187.075 351.386 186.921 351.183 186.737C350.974 186.538 350.769 186.333 350.566 186.123L338.203 173.596L340.454 169.147L358.919 188.472L356.969 192.327ZM369.477 168.557C368.567 170.356 367.457 171.711 366.149 172.623C364.83 173.529 363.413 174.083 361.899 174.285C360.379 174.471 358.845 174.394 357.296 174.055C355.746 173.715 354.275 173.193 352.883 172.488C351.491 171.784 350.199 170.909 349.008 169.862C347.816 168.815 346.85 167.628 346.11 166.299C345.365 164.953 344.972 163.484 344.931 161.89C344.88 160.29 345.309 158.591 346.219 156.792C347.129 154.993 348.241 153.646 349.554 152.751C350.863 151.839 352.277 151.29 353.796 151.104C355.311 150.902 356.84 150.976 358.384 151.327C359.933 151.667 361.404 152.189 362.796 152.893C364.188 153.597 365.48 154.472 366.672 155.519C367.869 156.555 368.84 157.746 369.585 159.091C370.325 160.42 370.721 161.884 370.772 163.483C370.818 165.067 370.387 166.758 369.477 168.557ZM365.477 166.534C365.986 165.527 366.181 164.557 366.062 163.622C365.949 162.677 365.62 161.798 365.076 160.986C364.533 160.173 363.865 159.445 363.074 158.803C362.272 158.155 361.454 157.62 360.618 157.197C359.719 156.742 358.771 156.384 357.774 156.122C356.771 155.843 355.792 155.731 354.837 155.786C353.876 155.824 352.992 156.083 352.185 156.562C351.372 157.025 350.706 157.771 350.186 158.799C349.661 159.838 349.455 160.83 349.569 161.775C349.688 162.709 350.024 163.585 350.579 164.404C351.128 165.206 351.803 165.931 352.605 166.578C353.402 167.21 354.223 167.74 355.069 168.168C355.958 168.617 356.898 168.979 357.889 169.252C358.886 169.514 359.868 169.62 360.834 169.571C361.806 169.511 362.693 169.247 363.494 168.779C364.302 168.299 364.963 167.551 365.477 166.534ZM381.114 145.55C380.161 147.435 378.998 148.87 377.625 149.857C376.246 150.827 374.709 151.327 373.013 151.357C371.323 151.376 369.53 150.906 367.634 149.947L353.725 142.911L355.829 138.751L369.739 145.787C371.441 146.648 372.886 146.902 374.074 146.548C375.262 146.194 376.275 145.187 377.115 143.527C377.646 142.478 377.924 141.516 377.949 140.641C377.975 139.767 377.713 138.968 377.164 138.247C376.604 137.52 375.735 136.858 374.557 136.262L360.647 129.226L362.759 125.05L376.669 132.086C378.254 132.888 379.495 133.811 380.391 134.857C381.293 135.891 381.9 137.005 382.211 138.198C382.517 139.375 382.568 140.59 382.363 141.845C382.148 143.095 381.732 144.33 381.114 145.55ZM392.545 122.873C391.662 124.619 390.577 125.926 389.291 126.795C388.009 127.653 386.625 128.17 385.138 128.345C383.645 128.504 382.129 128.403 380.591 128.042C379.052 127.681 377.582 127.145 376.179 126.436C374.851 125.764 373.591 124.918 372.399 123.898C371.202 122.862 370.217 121.685 369.445 120.367C368.668 119.032 368.235 117.589 368.145 116.038C368.056 114.487 368.447 112.849 369.319 111.125C370.04 109.701 370.906 108.586 371.919 107.78C372.921 106.969 373.975 106.413 375.082 106.113C376.184 105.796 377.239 105.664 378.248 105.717L378.097 110.321C377.356 110.403 376.69 110.537 376.099 110.722C375.497 110.902 374.965 111.183 374.501 111.568C374.033 111.936 373.628 112.457 373.287 113.132C372.799 114.095 372.626 115.023 372.766 115.915C372.897 116.801 373.241 117.634 373.801 118.415C374.361 119.196 375.047 119.899 375.86 120.526C376.673 121.152 377.508 121.682 378.364 122.115C379.275 122.575 380.228 122.937 381.225 123.199C382.222 123.461 383.196 123.57 384.146 123.527C385.096 123.483 385.958 123.253 386.733 122.838C387.497 122.418 388.107 121.758 388.562 120.858C389.049 119.895 389.19 118.951 388.985 118.027C388.775 117.087 388.377 116.146 387.791 115.204L391.146 112.12C391.941 113.128 392.567 114.204 393.023 115.349C393.479 116.494 393.685 117.695 393.642 118.95C393.598 120.206 393.233 121.514 392.545 122.873ZM398.096 111.021L375.61 99.6466L377.714 95.4866L386.628 99.9959L391.438 90.4872L382.524 85.9779L384.628 81.8178L407.115 93.1926L405.011 97.3527L395.406 92.494L390.596 102.003L400.201 106.861L398.096 111.021ZM409.776 87.9323L387.289 76.5575L394.975 61.3629L398.926 63.3616L393.345 74.3962L398.292 76.8987L401.599 70.3614L405.55 72.3601L402.243 78.8974L407.897 81.7573L413.82 70.0481L417.803 72.0631L409.776 87.9323ZM419.853 68.0117L397.366 56.6369L402.541 46.4055C403.489 44.5316 404.563 43.2191 405.764 42.468C406.959 41.7007 408.203 41.355 409.496 41.4308C410.794 41.4959 412.053 41.8372 413.274 42.4547C414.12 42.8826 414.893 43.4819 415.592 44.2526C416.297 45.0126 416.83 45.9006 417.19 46.9165C417.55 47.9325 417.641 49.0277 417.464 50.2022L428.782 50.3596L426.417 55.0336L415.752 54.9839L413.444 59.5455L421.957 63.8517L419.853 68.0117ZM409.525 57.563L412.629 51.4274C413.024 50.6457 413.191 49.9568 413.129 49.3609C413.062 48.7488 412.842 48.2272 412.468 47.7961C412.095 47.365 411.646 47.0168 411.121 46.7514C410.65 46.513 410.133 46.3657 409.569 46.3094C409.006 46.2531 408.455 46.3713 407.917 46.664C407.379 46.9566 406.905 47.5099 406.493 48.3237L403.389 54.4593L409.525 57.563Z" fill="#C50002"/>
<path d="M245.363 387.517L264.189 396.166L267.173 389.673L271.246 391.544L263.317 408.8L259.245 406.929L262.243 400.403L243.417 391.753L245.363 387.517ZM234.126 410.941C235.008 409.021 236.116 407.543 237.451 406.506C238.792 405.484 240.309 404.927 242.003 404.833C243.692 404.751 245.501 405.153 247.431 406.04L261.596 412.548L259.649 416.784L245.485 410.276C243.751 409.479 242.297 409.28 241.124 409.679C239.95 410.077 238.975 411.122 238.199 412.812C237.708 413.88 237.466 414.852 237.473 415.727C237.481 416.602 237.773 417.39 238.349 418.09C238.936 418.796 239.829 419.424 241.029 419.975L255.193 426.483L253.239 430.736L239.075 424.228C237.461 423.486 236.186 422.61 235.251 421.6C234.31 420.6 233.662 419.509 233.307 418.329C232.957 417.165 232.86 415.952 233.017 414.69C233.185 413.434 233.555 412.184 234.126 410.941ZM261.032 419.38L264.001 426.37L261.656 431.473L259.228 423.306L261.032 419.38ZM227.922 425.479L250.821 436L248.874 440.236L225.976 429.715L227.922 425.479ZM219.717 443.337L242.616 453.857L240.67 458.094L221.876 449.459L216.789 460.532L212.684 458.646L219.717 443.337ZM211.205 461.865L234.103 472.386L226.994 487.859L222.971 486.01L228.133 474.774L223.096 472.459L220.037 479.116L216.013 477.267L219.072 470.61L213.315 467.965L207.836 479.889L203.78 478.025L211.205 461.865ZM199.063 488.293L225.696 490.685L223.592 495.264L206.078 493.418C205.814 493.389 205.539 493.355 205.253 493.316C204.973 493.293 204.717 493.261 204.484 493.221C204.655 493.338 204.845 493.485 205.055 493.661C205.27 493.852 205.484 494.049 205.694 494.252L218.52 506.305L216.438 510.836L197.259 492.219L199.063 488.293ZM192.065 503.523L214.964 514.043L213.018 518.28L190.119 507.759L192.065 503.523ZM201.289 519.879L203.29 518.758C203.374 519.035 203.522 519.387 203.735 519.815C203.954 520.259 204.207 520.699 204.496 521.135C204.79 521.587 205.097 521.953 205.418 522.232C205.854 521.772 206.361 521.457 206.941 521.288C207.521 521.118 208.143 521.186 208.808 521.492C209.615 521.863 210.136 522.425 210.37 523.18C210.599 523.946 210.551 524.683 210.226 525.392C209.88 526.144 209.317 526.665 208.537 526.954C207.764 527.258 206.87 527.178 205.855 526.712C205.016 526.326 204.272 525.76 203.625 525.013C202.983 524.283 202.462 523.462 202.062 522.552C201.656 521.653 201.399 520.762 201.289 519.879ZM180.056 528.627C180.712 527.198 181.559 526.016 182.597 525.08C183.635 524.143 184.804 523.466 186.106 523.047C187.414 522.644 188.79 522.523 190.234 522.685L189.891 527.183C188.619 527.192 187.444 527.478 186.367 528.04C185.296 528.618 184.508 529.457 184.002 530.558C183.466 531.725 183.285 532.765 183.461 533.677C183.631 534.6 184.184 535.278 185.122 535.708C185.766 536.004 186.395 536.042 187.011 535.823C187.632 535.62 188.256 535.24 188.882 534.682C189.514 534.141 190.177 533.501 190.873 532.764C191.542 532.055 192.246 531.355 192.986 530.665C193.726 529.975 194.509 529.39 195.336 528.912C196.175 528.439 197.081 528.162 198.055 528.081C199.025 528.012 200.071 528.235 201.195 528.751C202.318 529.267 203.21 530.04 203.873 531.071C204.535 532.101 204.883 533.312 204.919 534.701C204.96 536.107 204.607 537.622 203.86 539.246C203.249 540.577 202.479 541.649 201.55 542.464C200.627 543.294 199.623 543.87 198.538 544.19C197.454 544.51 196.36 544.576 195.259 544.387L195.743 540.013C196.57 540.024 197.358 539.818 198.106 539.396C198.861 538.99 199.484 538.252 199.975 537.184C200.435 536.181 200.597 535.311 200.46 534.574C200.323 533.838 199.895 533.304 199.175 532.974C198.685 532.748 198.18 532.741 197.66 532.951C197.147 533.177 196.609 533.544 196.046 534.051C195.477 534.569 194.866 535.167 194.212 535.844C193.491 536.608 192.728 537.348 191.925 538.061C191.128 538.791 190.283 539.393 189.391 539.869C188.494 540.355 187.529 540.631 186.495 540.697C185.472 540.768 184.366 540.531 183.177 539.985C181.716 539.314 180.641 538.377 179.952 537.176C179.257 535.985 178.92 534.648 178.941 533.166C178.973 531.688 179.345 530.175 180.056 528.627Z" fill="#C50002"/>
</svg>
